<?xml version="1.0" encoding="utf-8"?>
<!-- Generator: Adobe Illustrator 15.0.0, SVG Export Plug-In . SVG Version: 6.00 Build 0)  -->
<!DOCTYPE svg PUBLIC "-//W3C//DTD SVG 1.1//EN" "http://www.w3.org/Graphics/SVG/1.1/DTD/svg11.dtd">
<svg version="1.1" id="Layer_1" xmlns="http://www.w3.org/2000/svg" xmlns:xlink="http://www.w3.org/1999/xlink" x="0px" y="0px"
	 width="685.465px" height="715.464px" viewBox="0 0 685.465 715.464" enable-background="new 0 0 685.465 715.464"
	 xml:space="preserve">
<g id="Layer_1_1_" display="none">
	
		<circle display="inline" fill="none" stroke="#EC5F62" stroke-width="40" stroke-miterlimit="10" cx="339.732" cy="242.531" r="211.998"/>
	<g display="inline">
		<path fill="#EC5F62" d="M344.069,196.711l-4.762,21.973h-22.583l-6.714,30.273h25.27l-5.493,21.973h-24.292l-9.521,42.236h-24.414
			l8.911-42.236h-27.954l-9.033,42.236h-24.414l8.667-42.236H205.03l4.517-21.973h22.949l6.47-30.273h-24.658l4.15-21.973h25.024
			l9.033-43.457h25.024l-9.033,43.457h27.954l9.277-43.457h24.779l-9.032,43.457H344.069z M292.066,218.684h-28.32l-6.714,30.273
			h28.198L292.066,218.684z"/>
		<path fill="#EC5F62" d="M480.053,327.205H369.336v-30.518h36.254V187.678l-37.23,8.057v-31.25l75.684-15.259v147.461h36.012
			v30.518H480.053z"/>
	</g>
	<path display="inline" fill="#EC5F62" d="M496.102,404.183l-9.521-32.284l-23.801,23.802
		c-32.424,32.422-98.111,39.723-120.688,39.801c-22.575-0.078-88.264-7.379-120.687-39.801l-23.801-23.803l-9.523,32.284
		c-1.556,5.274-37.681,129.478-38.546,280.011c2.225,12.1,12.819,21.27,25.563,21.27c3.43,0,6.702-0.668,9.699-1.877
		l156.597-102.055h1.533l156.46,102.057c2.996,1.209,6.27,1.877,9.697,1.877c12.744,0,23.34-9.172,25.564-21.271
		C533.786,533.66,497.661,409.458,496.102,404.183z"/>
</g>
<g id="Layer_2" display="none">
	<path display="inline" fill="#EC609A" d="M208.011,485.589V312.45c0-19.821,16.068-35.89,35.89-35.89h191.086
		c19.82,0,35.889,16.069,35.889,35.89v173.139"/>
	<g display="inline">
		<path fill="#EC609A" d="M195.907,702.724H85.189v-30.518h36.255v-109.01l-37.231,8.057v-31.25l75.684-15.258v147.461h36.011
			L195.907,702.724L195.907,702.724z"/>
		<path fill="#EC609A" d="M279.281,705.775c-41.668,0-62.5-29.254-62.5-87.77c0-30.354,5.634-53.484,16.907-69.395
			c11.271-15.91,27.607-23.865,49.011-23.865c40.688,0,61.036,29.744,61.036,89.232c0,29.623-5.556,52.328-16.663,68.115
			C315.962,697.882,300.033,705.775,279.281,705.775z M280.99,554.164c-16.684,0-25.024,20.957-25.024,62.867
			c0,39.471,8.179,59.203,24.536,59.203c15.949,0,23.926-20.344,23.926-61.035C304.427,574.509,296.615,554.164,280.99,554.164z"/>
		<path fill="#EC609A" d="M571.516,702.724h-38.939V597.988c0-11.313,0.488-23.805,1.465-37.477h-0.977
			c-2.035,10.742-3.865,18.475-5.492,23.193l-41.018,119.018h-32.225l-41.748-117.797c-1.141-3.174-2.973-11.311-5.494-24.414
			h-1.098c1.057,17.254,1.586,32.391,1.586,45.41v96.801h-35.521V527.675h57.738l35.768,103.76
			c2.848,8.301,4.924,16.645,6.227,25.023h0.73c2.197-9.684,4.518-18.105,6.959-25.268l35.768-103.518h56.273v175.051H571.516z"/>
	</g>
	<circle display="inline" fill="#EC609A" cx="341.088" cy="131.346" r="102.286"/>
	<path display="inline" fill="#EC609A" d="M37.665,84.438C27.598,67.363,33.28,45.36,50.355,35.293l29.371-17.315
		c17.075-10.066,39.078-4.384,49.144,12.691l100.247,170.044c10.066,17.075,4.385,39.078-12.69,49.144l-29.372,17.316
		c-17.075,10.066-39.078,4.384-49.144-12.691L37.665,84.438z"/>
	<path display="inline" fill="#EC609A" d="M646.52,84.438c10.066-17.075,4.385-39.078-12.689-49.144l-29.371-17.315
		c-17.076-10.066-39.078-4.384-49.145,12.691L455.069,200.713c-10.066,17.075-4.387,39.078,12.689,49.144l29.371,17.316
		c17.074,10.066,39.078,4.384,49.145-12.691L646.52,84.438z"/>
</g>
<g id="Layer_3">
	<g>
		<path fill="#F07F19" d="M140.88,435.91v-31.738c9.195,6.022,20.264,9.033,33.203,9.033c13.508,0,23.945-4.578,31.311-13.732
			c7.364-9.156,11.087-22.156,11.169-39.002l-0.732-0.244c-7.732,11.475-19.491,17.212-35.278,17.212
			c-14.324,0-26.184-5.005-35.583-15.015c-9.399-10.01-14.099-22.989-14.099-38.94c0-18.635,5.737-33.588,17.212-44.861
			c11.475-11.271,26.325-16.907,44.556-16.907c18.717,0,33.63,7.08,44.739,21.24c11.109,14.16,16.663,34.424,16.663,60.791
			c0,31.25-6.695,55.563-20.081,72.937c-13.388,17.377-32.085,26.063-56.091,26.063C163.625,442.746,151.296,440.466,140.88,435.91z
			 M191.54,291.134c-6.674,0-12.167,2.707-16.479,8.118c-4.314,5.413-6.47,12.39-6.47,20.935c0,8.871,2.136,15.85,6.409,20.935
			c4.272,5.087,10.071,7.629,17.395,7.629c6.672,0,12.125-2.42,16.357-7.263c4.23-4.841,6.348-10.925,6.348-18.25
			c0-9.195-2.218-16.846-6.653-22.949C204.01,294.186,198.375,291.134,191.54,291.134z"/>
		<path fill="#F07F19" d="M322.643,406.979v0.731h71.045v31.982H278.454v-30.029l50.171-47.974
			c10.09-9.684,17.192-17.801,21.301-24.353c4.109-6.55,6.164-13.447,6.164-20.691c0-16.113-8.666-24.17-26-24.17
			c-15.057,0-29.461,5.981-43.213,17.944v-33.936c15.217-9.846,32.389-14.771,51.514-14.771c17.903,0,31.879,4.498,41.932,13.489
			c10.049,8.993,15.076,21.139,15.076,36.438c0,20.428-12.25,41.546-36.744,63.354L322.643,406.979z"/>
		<path fill="#F07F19" d="M446.741,377.555c-8.965,0-16.189-2.841-21.666-8.525c-5.479-5.683-8.217-13.329-8.217-22.939
			c0-10.488,2.914-18.809,8.744-24.961c5.828-6.152,13.607-9.229,23.334-9.229c9.316,0,16.598,2.784,21.842,8.35
			c5.244,5.567,7.865,13.39,7.865,23.467c0,10.371-2.898,18.604-8.699,24.698C464.141,374.509,456.409,377.555,446.741,377.555z
			 M538.76,313.658l-82.09,126.035h-21.445l81.914-126.035H538.76z M448.411,327.369c-8.557,0-12.832,5.948-12.832,17.842
			c0,11.25,4.072,16.875,12.217,16.875c8.318,0,12.48-5.857,12.48-17.578C460.276,333.082,456.321,327.369,448.411,327.369z
			 M525.225,441.451c-8.965,0-16.188-2.84-21.664-8.525c-5.479-5.682-8.219-13.328-8.219-22.938c0-10.487,2.914-18.809,8.746-24.961
			c5.828-6.151,13.607-9.229,23.334-9.229c9.375,0,16.67,2.756,21.885,8.263c5.217,5.509,7.822,13.302,7.822,23.379
			c0,10.371-2.898,18.634-8.701,24.784C542.627,438.375,534.893,441.451,525.225,441.451z M526.631,391.266
			c-8.496,0-12.744,5.948-12.744,17.842c0,11.25,4.131,16.876,12.395,16.876c8.318,0,12.479-5.859,12.479-17.579
			c0-5.448-1.111-9.668-3.34-12.655C533.194,392.759,530.264,391.266,526.631,391.266z"/>
	</g>
	<circle fill="none" stroke="#EEEEEE" stroke-width="40" stroke-miterlimit="10" cx="339.444" cy="357.731" r="292"/>
	<path fill="#F07F19" d="M560.061,137.115c-58.93-58.929-137.279-91.383-220.617-91.383v40c149.98,0,272,122.019,272,272
		c0,149.982-122.02,272-272,272c-149.982,0-272-122.018-272-272c0-96.381,50.395-181.208,126.213-229.534l-22.539-33.271
		c-18.678,12.016-36.212,26.108-52.292,42.188c-58.929,58.929-91.383,137.279-91.383,220.617s32.454,161.689,91.383,220.617
		c58.929,58.93,137.279,91.383,220.618,91.383c83.337,0,161.687-32.453,220.617-91.383c58.93-58.928,91.383-137.279,91.383-220.617
		S618.991,196.043,560.061,137.115z"/>
</g>
</svg>
