<?xml version="1.0" encoding="utf-8"?>
<!-- Generator: Adobe Illustrator 15.0.0, SVG Export Plug-In . SVG Version: 6.00 Build 0)  -->
<!DOCTYPE svg PUBLIC "-//W3C//DTD SVG 1.1//EN" "http://www.w3.org/Graphics/SVG/1.1/DTD/svg11.dtd">
<svg version="1.1" id="Layer_1" xmlns="http://www.w3.org/2000/svg" xmlns:xlink="http://www.w3.org/1999/xlink" x="0px" y="0px"
	 width="1122px" height="766px" viewBox="0 0 1122 766" enable-background="new 0 0 1122 766" xml:space="preserve">
<circle fill="none" stroke="#45A3BD" stroke-width="40" stroke-miterlimit="10" cx="195.086" cy="568.063" r="173"/>
<circle fill="none" stroke="#45A3BD" stroke-width="40" stroke-miterlimit="10" cx="926.207" cy="568.147" r="173"/>
<path fill="none" stroke="#45A3BD" stroke-width="40" stroke-miterlimit="10" d="M772.129,574.063"/>
<g>
	<path fill="none" stroke="#45A3BD" stroke-width="40" stroke-miterlimit="10" d="M195.086,574.063
		c0,0,97.981-162.839,97.981-357.83l409.813-9.167c16.496-0.369,26.387,12.338,21.979,28.239l-89.978,324.548
		c-4.408,15.9,5.472,28.286,21.953,27.524l258.07-11.931c16.481-0.763,22.856-12.862,14.17-26.89l-204.313-329.83"/>
</g>
<circle fill="#45A3BD" cx="195.086" cy="574.063" r="20"/>
<line fill="none" stroke="#45A3BD" stroke-width="40" stroke-miterlimit="10" x1="721.623" y1="248.473" x2="749.207" y2="146.478"/>
<circle fill="#45A3BD" stroke="#45A3BD" stroke-width="40" stroke-miterlimit="10" cx="647.498" cy="105.627" r="23.635"/>
<path fill="#45A3BD" stroke="#45A3BD" stroke-miterlimit="10" d="M746.551,99.418c4.787-32.788,35.248-55.487,68.035-50.699
	c32.789,4.788,55.486,35.248,50.699,68.036s-32.248,62.486-65.035,57.699C767.461,169.667,741.764,132.207,746.551,99.418z"/>
<path fill="#45A3BD" stroke="#45A3BD" stroke-miterlimit="10" d="M671.494,71.495c0,0,44.604,23.08,100.865-13.141l39.258,116.738
	c0,0-107.332-8.875-168.666-25.542"/>
<line fill="none" stroke="#45A3BD" stroke-width="40" stroke-miterlimit="10" x1="299.883" y1="231.234" x2="284.996" y2="156.994"/>
<path fill="none" stroke="#45A3BD" stroke-width="40" stroke-miterlimit="10" d="M285.723,158.004c0,0-23-135.839,128.916-130.79"/>
<line fill="none" stroke="#45A3BD" stroke-width="40" stroke-miterlimit="10" x1="297.44" y1="294.23" x2="640.873" y2="582.729"/>
<circle fill="none" stroke="#45A3BD" stroke-width="40" stroke-miterlimit="10" cx="629.868" cy="574.765" r="74.24"/>
</svg>
