<?xml version="1.0" encoding="utf-8"?>
<!-- Generator: Adobe Illustrator 15.0.0, SVG Export Plug-In . SVG Version: 6.00 Build 0)  -->
<!DOCTYPE svg PUBLIC "-//W3C//DTD SVG 1.1//EN" "http://www.w3.org/Graphics/SVG/1.1/DTD/svg11.dtd">
<svg version="1.1" id="Layer_1" xmlns="http://www.w3.org/2000/svg" xmlns:xlink="http://www.w3.org/1999/xlink" x="0px" y="0px"
	 width="1122px" height="766px" viewBox="0 0 1122 766" enable-background="new 0 0 1122 766" xml:space="preserve">
<g>
	<path fill="#FFFFFF" d="M195.086,751.063c-100.907,0-183-82.094-183-183c0-100.907,82.093-183.001,183-183.001
		s183,82.094,183,183.001C378.086,668.97,295.993,751.063,195.086,751.063z M195.086,405.063c-89.878,0-163,73.122-163,163.001
		s73.122,163,163,163s163-73.121,163-163S284.964,405.063,195.086,405.063z"/>
</g>
<g>
	<path fill="#FFFFFF" d="M926.207,751.147c-100.906,0-183-82.094-183-183c0-100.907,82.094-183.001,183-183.001
		s183,82.094,183,183.001C1109.207,669.054,1027.113,751.147,926.207,751.147z M926.207,405.146c-89.879,0-163,73.122-163,163.001
		s73.121,163,163,163s163-73.121,163-163S1016.086,405.146,926.207,405.146z"/>
</g>
<g>
	<path fill="#FFFFFF" stroke="#FFFFFF" stroke-width="20" stroke-miterlimit="10" d="M772.129,574.063"/>
</g>
<g>
	<g>
		<path fill="#FFFFFF" d="M655.448,597.409c-10.34,0-19.464-4.065-25.242-11.311c-6.121-7.674-7.93-18.214-4.962-28.918
			l89.979-324.547c1.266-4.565,0.767-8.616-1.405-11.407c-2.173-2.791-6.01-4.275-10.714-4.163l-400.119,8.95
			c-1.64,98.376-27.632,187.544-49.549,245.779c-24.534,65.187-48.762,105.732-49.781,107.426l-17.137-10.311
			c0.329-0.549,24.515-41.119,48.369-104.61c21.98-58.502,48.181-149.027,48.181-248.065v-9.779l419.589-9.386
			c11.057-0.263,20.879,4.081,26.943,11.874c1.189,1.528,2.214,3.163,3.07,4.884l0.592-0.367l204.313,329.83
			c6.056,9.78,7.038,20.112,2.697,28.349s-13.418,13.265-24.905,13.797l-258.071,11.931
			C656.676,597.395,656.06,597.409,655.448,597.409z M731.536,248.653l-87.019,313.871c-1.253,4.519-0.783,8.462,1.324,11.103
			c2.105,2.641,5.839,3.971,10.53,3.761l258.07-11.931c4.097-0.189,7.215-1.395,8.137-3.144c0.923-1.749,0.153-5.004-2.007-8.493
			L731.536,248.653z M195.086,574.063l-8.57-5.153c0,0,0.001-0.001,0.001-0.002L195.086,574.063z"/>
	</g>
</g>
<g>
	<circle fill="#FFFFFF" cx="195.086" cy="574.063" r="20"/>
</g>
<g>
	
		<rect x="725.415" y="144.646" transform="matrix(0.9653 0.2611 -0.2611 0.9653 77.0632 -185.1531)" fill="#FFFFFF" width="20" height="105.659"/>
</g>
<g>
	<circle fill="#FFFFFF" cx="647.498" cy="105.627" r="23.635"/>
	<path fill="#FFFFFF" d="M647.498,149.262c-24.061,0-43.635-19.575-43.635-43.635s19.574-43.635,43.635-43.635
		s43.635,19.575,43.635,43.635S671.559,149.262,647.498,149.262z M647.498,101.992c-2.004,0-3.635,1.63-3.635,3.635
		s1.631,3.635,3.635,3.635s3.635-1.63,3.635-3.635S649.502,101.992,647.498,101.992z"/>
</g>
<path fill="#FFFFFF" d="M746.551,99.418c4.787-32.788,35.248-55.487,68.035-50.699c32.789,4.788,55.486,35.248,50.699,68.036
	s-32.248,62.486-65.035,57.699C767.461,169.667,741.764,132.207,746.551,99.418z"/>
<path fill="#FFFFFF" d="M671.494,71.495c0,0,44.604,23.08,100.865-13.141l39.258,116.738c0,0-107.332-8.875-168.666-25.542"/>
<g>
	
		<rect x="251.581" y="179.114" transform="matrix(0.1966 0.9805 -0.9805 0.1966 417.9561 -131.8576)" fill="#FFFFFF" width="75.718" height="20"/>
</g>
<g>
	<path fill="#FFFFFF" d="M272.451,155.93c-0.422-2.495-9.924-61.58,26.65-103.438c24.09-27.569,61.932-40.694,112.458-39.017
		l-0.664,19.989c-44.167-1.475-76.682,9.324-96.637,32.078c-30.352,34.608-22.17,86.545-22.083,87.065L272.451,155.93z"/>
</g>
<g>
	
		<rect x="230.685" y="422.781" transform="matrix(0.7642 0.6449 -0.6449 0.7642 388.3169 -196.6913)" fill="#FFFFFF" width="465.003" height="20"/>
</g>
<g>
	<path fill="#FFFFFF" d="M629.868,659.005c-46.45,0-84.24-37.79-84.24-84.24c0-46.449,37.79-84.239,84.24-84.239
		s84.24,37.79,84.24,84.239C714.108,621.215,676.318,659.005,629.868,659.005z M629.868,510.525
		c-35.422,0-64.24,28.817-64.24,64.239s28.818,64.24,64.24,64.24s64.24-28.818,64.24-64.24S665.29,510.525,629.868,510.525z"/>
</g>
</svg>
