<?xml version="1.0" encoding="utf-8"?>
<!-- Generator: Adobe Illustrator 15.0.0, SVG Export Plug-In . SVG Version: 6.00 Build 0)  -->
<!DOCTYPE svg PUBLIC "-//W3C//DTD SVG 1.1//EN" "http://www.w3.org/Graphics/SVG/1.1/DTD/svg11.dtd">
<svg version="1.1" id="Layer_1" xmlns="http://www.w3.org/2000/svg" xmlns:xlink="http://www.w3.org/1999/xlink" x="0px" y="0px"
	 width="685.465px" height="759.302px" viewBox="0 0 685.465 759.302" enable-background="new 0 0 685.465 759.302"
	 xml:space="preserve">
<g id="Layer_2" display="none">
	<path display="inline" fill="#EC609A" d="M208.011,485.589V312.45c0-19.821,16.068-35.89,35.89-35.89h191.086
		c19.819,0,35.889,16.069,35.889,35.89v173.139"/>
	
		<text transform="matrix(1 0 0 1 64.437 702.7241)" display="inline" fill="#EC609A" font-family="'MyanmarText-Bold'" font-size="250">10M</text>
	<circle display="inline" fill="#EC609A" cx="341.088" cy="131.346" r="102.286"/>
	<path display="inline" fill="#EC609A" d="M37.665,84.438C27.598,67.363,33.28,45.36,50.355,35.293l29.371-17.315
		c17.075-10.066,39.078-4.384,49.144,12.691l100.247,170.044c10.066,17.075,4.385,39.078-12.69,49.144l-29.372,17.316
		c-17.075,10.066-39.078,4.384-49.144-12.691L37.665,84.438z"/>
	<path display="inline" fill="#EC609A" d="M646.52,84.438c10.066-17.075,4.386-39.078-12.688-49.144L604.46,17.979
		c-17.076-10.066-39.078-4.384-49.145,12.691L455.069,200.713c-10.066,17.075-4.388,39.078,12.688,49.144l29.371,17.316
		c17.074,10.066,39.078,4.384,49.146-12.691L646.52,84.438z"/>
</g>
<g id="Layer_3" display="none">
	<g display="inline">
		<text transform="matrix(1 0 0 1 121.3491 439.6938)" fill="#F07F19" font-family="'MyanmarText-Bold'" font-size="250">92</text>
		<text transform="matrix(1 0 0 1 408.9473 439.6938)" fill="#F07F19" font-family="'MyanmarText-Bold'" font-size="180">%</text>
		<circle fill="none" stroke="#CDCCCC" stroke-width="40" stroke-miterlimit="10" cx="339.444" cy="357.731" r="292"/>
		<path fill="#F07F19" d="M560.061,137.115c-58.93-58.929-137.278-91.383-220.616-91.383v40c149.979,0,272,122.019,272,272
			c0,149.982-122.021,272-272,272c-149.982,0-272-122.018-272-272c0-96.381,50.395-181.208,126.213-229.534l-22.539-33.271
			c-18.678,12.016-36.212,26.108-52.292,42.188c-58.929,58.929-91.383,137.279-91.383,220.617s32.454,161.689,91.383,220.617
			c58.929,58.93,137.279,91.383,220.618,91.383c83.337,0,161.687-32.453,220.616-91.383
			c58.931-58.928,91.384-137.279,91.384-220.617S618.991,196.043,560.061,137.115z"/>
	</g>
</g>
<g>
	<path fill="#555555" d="M338.51,557.584c-5.062,2.669-11.769,5.445-20.433,8.07c-3.021,0.914-6.172,1.777-9.427,2.594
		c10.454,1.174,20.457,2.722,29.86,4.612V557.584z"/>
	<path fill="#555555" d="M122.366,531.288c27.052,8.195,62.834,12.709,100.754,12.709s73.703-4.514,100.755-12.709
		c5.461-1.654,10.313-3.388,14.634-5.176l0.001-22.035c-5.062,2.669-11.769,5.445-20.433,8.07
		c-25.224,7.641-58.947,11.85-94.957,11.85s-69.732-4.209-94.956-11.85c-24.529-7.432-33.432-16.076-33.432-20.074v-25.521
		c6.829,4.072,15.823,8.018,27.633,11.596c27.052,8.195,62.834,12.709,100.754,12.709s73.702-4.514,100.755-12.709
		c5.461-1.655,10.313-3.389,14.634-5.176l0.001-22.036c-5.062,2.669-11.769,5.445-20.433,8.069
		c-25.225,7.643-58.947,11.852-94.957,11.852s-69.731-4.209-94.956-11.852c-24.529-7.43-33.432-16.076-33.432-20.074v-25.885
		c6.829,4.072,15.823,8.016,27.633,11.594c27.053,8.195,62.834,12.709,100.754,12.709s73.702-4.514,100.755-12.709
		c5.461-1.654,10.313-3.388,14.634-5.175l0.001-22.035c-5.062,2.669-11.769,5.444-20.433,8.069
		c-25.225,7.641-58.948,11.85-94.957,11.85s-69.732-4.209-94.956-11.85c-24.529-7.431-33.432-16.075-33.432-20.072v-25.088
		c6.829,4.071,15.823,8.016,27.633,11.594c27.053,8.195,62.834,12.709,100.754,12.709c37.92,0,73.703-4.514,100.755-12.709
		c5.461-1.654,10.313-3.388,14.634-5.175l0.001-22.036c-5.062,2.669-11.769,5.445-20.433,8.07
		c-25.224,7.641-58.947,11.85-94.957,11.85c-36.009,0-69.732-4.209-94.956-11.851c-24.529-7.431-33.432-16.075-33.432-20.073
		v-25.887c6.829,4.072,15.823,8.017,27.633,11.595c27.053,8.196,62.834,12.709,100.754,12.709s73.702-4.513,100.755-12.709
		c5.461-1.654,10.313-3.388,14.634-5.175l0.001-22.036c-5.062,2.67-11.769,5.445-20.433,8.07
		c-25.224,7.642-58.947,11.85-94.957,11.85s-69.732-4.208-94.956-11.85c-24.529-7.431-33.432-16.076-33.432-20.073v-25.523
		c6.829,4.072,15.823,8.016,27.633,11.594c27.052,8.195,62.834,12.708,100.754,12.708c37.92,0,73.703-4.513,100.755-12.708
		c7.248-2.195,13.432-4.529,18.709-6.946c4.418-8.263,13.067-16.899,28.926-24.516V67.923h-0.001
		c0-11.307-8.265-27.288-47.634-39.214C296.822,20.513,261.04,16,223.12,16s-73.702,4.513-100.754,12.708
		C82.997,40.635,74.732,56.616,74.732,67.923v532h0.023c0.371,8.572,5.659,19.568,25.118,29.443l1.54-11.936
		c0.818-2.598,2.015-5.273,3.676-7.975c-7.339-4.314-10.357-8.209-10.357-10.533v-25.721c6.829,4.072,15.823,8.016,27.633,11.594
		c3.051,0.924,6.227,1.795,9.49,2.623c6.333-3.119,13.85-6.074,22.752-8.771c5.156-1.563,10.617-2.992,16.332-4.291
		c-15.826-2.004-30.337-4.934-42.775-8.701c-24.529-7.432-33.432-16.076-33.432-20.072v-25.889
		C101.561,523.766,110.555,527.709,122.366,531.288z M128.165,47.85C153.388,40.208,187.111,36,223.12,36
		c36.01,0,69.732,4.208,94.956,11.85c24.529,7.431,33.433,16.075,33.433,20.073s-8.903,12.643-33.433,20.074
		c-25.224,7.642-58.946,11.85-94.956,11.85c-36.009,0-69.732-4.208-94.956-11.85c-24.529-7.431-33.432-16.076-33.432-20.074
		S103.636,55.28,128.165,47.85z M94.732,95.543c6.829,4.072,15.823,8.016,27.633,11.594c27.052,8.195,62.834,12.708,100.754,12.708
		s73.702-4.513,100.755-12.708c11.812-3.578,20.807-7.522,27.635-11.595v25.086c0,3.998-8.904,12.643-33.433,20.074
		c-25.224,7.641-58.947,11.85-94.957,11.85s-69.732-4.208-94.956-11.85c-24.529-7.431-33.432-16.076-33.432-20.074V95.543z
		 M94.732,148.25c6.829,4.072,15.823,8.016,27.633,11.594c27.052,8.195,62.834,12.708,100.754,12.708s73.702-4.513,100.755-12.708
		c11.812-3.578,20.807-7.522,27.635-11.594v24.312c0,3.998-8.904,12.643-33.433,20.073c-25.224,7.642-58.947,11.85-94.957,11.85
		s-69.732-4.208-94.956-11.85c-24.529-7.431-33.432-16.076-33.432-20.073V148.25z M94.732,200.182
		c6.829,4.071,15.823,8.016,27.633,11.594c27.053,8.195,62.834,12.708,100.754,12.708s73.702-4.513,100.755-12.708
		c11.812-3.578,20.807-7.522,27.635-11.595v25.886c0,3.998-8.904,12.643-33.433,20.073c-25.224,7.642-58.947,11.85-94.957,11.85
		c-36.009,0-69.732-4.208-94.956-11.85c-24.529-7.431-33.432-16.075-33.432-20.073V200.182z"/>
</g>
<g>
	<g>
		<path fill="#555555" d="M258.437,678.425c-37.92,0-73.702-4.514-100.754-12.707c-39.369-11.928-47.633-27.908-47.633-39.215
			s8.264-27.289,47.633-39.215c27.052-8.195,62.834-12.709,100.754-12.709s73.702,4.514,100.754,12.709
			c39.37,11.926,47.635,27.908,47.635,39.215s-8.265,27.287-47.635,39.215C332.139,673.912,296.357,678.425,258.437,678.425z
			 M258.437,594.58c-36.009,0-69.732,4.209-94.956,11.85c-24.529,7.432-33.432,16.076-33.432,20.074s8.903,12.643,33.432,20.072
			c25.224,7.643,58.946,11.85,94.956,11.85c36.01,0,69.733-4.207,94.956-11.85c24.529-7.43,33.434-16.074,33.434-20.072
			s-8.904-12.643-33.434-20.074C328.17,598.789,294.447,594.58,258.437,594.58z"/>
	</g>
	<g>
		<path fill="#555555" d="M258.437,738.453c-37.92,0-73.703-4.512-100.754-12.707c-39.37-11.926-47.634-27.908-47.634-39.215h20
			c0,3.998,8.903,12.643,33.432,20.074c25.224,7.641,58.946,11.848,94.957,11.848s69.733-4.207,94.957-11.848
			c24.528-7.432,33.433-16.076,33.433-20.074h20c0,11.307-8.265,27.289-47.635,39.215
			C332.14,733.941,296.357,738.453,258.437,738.453z"/>
	</g>
	<g>
		<rect x="110.049" y="626.501" fill="#555555" width="20" height="64.293"/>
	</g>
	<g>
		<rect x="386.826" y="623.238" fill="#555555" width="20" height="64.293"/>
	</g>
</g>
<g>
	<path fill="#555555" d="M598.797,237.073c-27.053-8.195-62.834-12.709-100.755-12.709s-73.702,4.514-100.755,12.709
		c-39.369,11.927-47.633,27.908-47.633,39.215v53.144h-0.001c0,0.014,0.001,0.028,0.001,0.042v53.465h-0.001
		c0,0.014,0.001,0.028,0.001,0.042v52.663h-0.001c0,0.014,0.001,0.028,0.001,0.042v53.464h-0.001c0,0.014,0.001,0.028,0.001,0.042
		v53.103h-0.001c0,0.014,0.001,0.028,0.001,0.042V575.3c4.187,1.024,8.237,2.115,12.104,3.286c2.768,0.838,5.391,1.703,7.896,2.589
		v-11.261c6.828,4.071,15.822,8.015,27.633,11.593c27.052,8.194,62.834,12.708,100.755,12.708c37.92,0,73.702-4.514,100.755-12.708
		c11.811-3.578,20.805-7.521,27.633-11.594v25.886c0,3.998-8.903,12.643-33.432,20.073c-25.223,7.641-58.945,11.849-94.956,11.849
		c-29.967,0-58.331-2.923-81.55-8.305v20.479c23.82,5.079,52.026,7.825,81.55,7.825c37.921,0,73.702-4.513,100.754-12.708
		c11.812-3.578,20.806-7.521,27.634-11.594v25.722c0,3.998-8.903,12.643-33.432,20.073c-25.225,7.642-58.947,11.851-94.956,11.851
		c-29.966,0-58.33-2.924-81.55-8.306v4.64v10v5.84c23.82,5.079,52.027,7.826,81.55,7.826c37.919,0,73.702-4.514,100.755-12.709
		c38.223-11.58,47.123-26.98,47.609-38.215h0.023V276.288C646.43,264.981,638.166,249,598.797,237.073z M626.43,542.293
		c0,3.997-8.903,12.642-33.432,20.072c-25.225,7.642-58.947,11.85-94.956,11.85c-36.011,0-69.733-4.208-94.957-11.85
		c-24.5-7.421-33.41-16.054-33.431-20.058V516.77c6.828,4.072,15.822,8.016,27.633,11.594
		c27.053,8.195,62.834,12.709,100.755,12.709c37.919,0,73.702-4.514,100.755-12.709c11.811-3.578,20.805-7.522,27.633-11.595
		V542.293z M626.43,489.149c0,3.998-8.903,12.643-33.432,20.073c-25.225,7.642-58.947,11.851-94.956,11.851
		c-36.01,0-69.732-4.209-94.956-11.851c-24.501-7.422-33.411-16.055-33.432-20.059v-25.898c6.828,4.072,15.822,8.016,27.632,11.594
		c27.053,8.196,62.835,12.71,100.756,12.71c37.92,0,73.702-4.514,100.755-12.71c11.811-3.578,20.805-7.522,27.633-11.595V489.149z
		 M626.43,435.643c0,3.998-8.903,12.645-33.432,20.075c-25.225,7.642-58.947,11.851-94.956,11.851
		c-36.01,0-69.733-4.209-94.956-11.851c-24.501-7.422-33.411-16.057-33.432-20.061v-25.1c6.828,4.071,15.822,8.015,27.633,11.593
		c27.053,8.195,62.835,12.709,100.755,12.709c37.919,0,73.701-4.514,100.755-12.709c11.811-3.578,20.805-7.521,27.633-11.594
		V435.643z M626.43,382.938c0,3.997-8.903,12.642-33.432,20.072c-25.225,7.642-58.947,11.85-94.956,11.85
		s-69.732-4.208-94.957-11.85c-24.5-7.422-33.41-16.055-33.431-20.058v-25.9c6.828,4.072,15.822,8.016,27.633,11.594
		c27.052,8.194,62.834,12.708,100.755,12.708c37.92,0,73.702-4.514,100.755-12.708c11.811-3.578,20.805-7.521,27.633-11.594V382.938
		z M626.43,329.431c0,3.998-8.903,12.643-33.432,20.073c-25.225,7.642-58.947,11.85-94.956,11.85
		c-36.011,0-69.733-4.208-94.957-11.85c-24.5-7.422-33.41-16.055-33.431-20.059v-25.538c6.828,4.072,15.822,8.016,27.633,11.594
		c27.053,8.194,62.835,12.708,100.755,12.708s73.702-4.514,100.755-12.708c11.811-3.578,20.805-7.521,27.633-11.594V329.431z
		 M592.998,296.36c-25.225,7.642-58.947,11.85-94.956,11.85s-69.731-4.208-94.956-11.85c-24.528-7.431-33.432-16.075-33.432-20.072
		c0-3.998,8.903-12.644,33.432-20.074c25.225-7.642,58.946-11.85,94.956-11.85s69.731,4.208,94.956,11.85
		c24.528,7.431,33.432,16.076,33.432,20.074C626.43,280.285,617.526,288.929,592.998,296.36z"/>
</g>
</svg>
