<?xml version="1.0" encoding="utf-8"?>
<!-- Generator: Adobe Illustrator 15.0.0, SVG Export Plug-In . SVG Version: 6.00 Build 0)  -->
<!DOCTYPE svg PUBLIC "-//W3C//DTD SVG 1.1//EN" "http://www.w3.org/Graphics/SVG/1.1/DTD/svg11.dtd">
<svg version="1.1" id="Layer_1" xmlns="http://www.w3.org/2000/svg" xmlns:xlink="http://www.w3.org/1999/xlink" x="0px" y="0px"
	 width="1174.879px" height="766px" viewBox="-52.879 0 1174.879 766" enable-background="new -52.879 0 1174.879 766"
	 xml:space="preserve">
<g>
	<path fill="none" stroke="#45A3BD" stroke-width="40" stroke-miterlimit="10" d="M1101.75,549.695c0,22.092-17.908,40-40,40h-712
		c-22.091,0-40-17.908-40-40V95.113c0-22.091,17.909-40,40-40h712c22.092,0,40,17.909,40,40V549.695z"/>
	<path fill="#45A3BD" d="M1060.5,414.945c0,8.282-6.716,15-15,15H366.928c-8.284,0-15-6.718-15-15V117.387c0-8.284,6.716-15,15-15
		H1045.5c8.284,0,15,6.716,15,15V414.945z"/>
	
		<line fill="none" stroke="#45A3BD" stroke-width="40" stroke-miterlimit="10" x1="746.375" y1="668.887" x2="746.375" y2="590.168"/>
	<line fill="none" stroke="#45A3BD" stroke-width="40" stroke-miterlimit="10" x1="666.25" y1="668.887" x2="666.25" y2="590.168"/>
	<g>
		<path fill="none" stroke="#45A3BD" stroke-width="40" stroke-miterlimit="10" d="M647.25,648.887H518.839c-8.283,0-15,6.716-15,15
			v32c0,8.284,6.717,15,15,15h372.073c8.284,0,15-6.716,15-15v-32c0-8.284-6.716-15-15-15H765.339"/>
	</g>
	<circle fill="#45A3BD" cx="705.75" cy="502.5" r="33"/>
</g>
<path fill="none" stroke="#45A3BD" stroke-width="40" stroke-miterlimit="10" d="M235.5,672.238c0,22.092-17.908,40-40,40H8.5
	c-22.091,0-40-17.908-40-40V217.655c0-22.091,17.909-40,40-40h187c22.092,0,40,17.909,40,40V672.238z"/>
<path fill="#45A3BD" d="M179.865,398.092c0,8.282-6.716,15-15,15H35.135c-8.283,0-15-6.718-15-15v-15.113c0-8.285,6.717-15,15-15
	h129.73c8.284,0,15,6.716,15,15V398.092z"/>
<circle fill="#45A3BD" cx="102" cy="289.404" r="33"/>
</svg>
