<?xml version="1.0" encoding="utf-8"?>
<!-- Generator: Adobe Illustrator 15.0.0, SVG Export Plug-In . SVG Version: 6.00 Build 0)  -->
<!DOCTYPE svg PUBLIC "-//W3C//DTD SVG 1.1//EN" "http://www.w3.org/Graphics/SVG/1.1/DTD/svg11.dtd">
<svg version="1.1" id="Layer_1" xmlns="http://www.w3.org/2000/svg" xmlns:xlink="http://www.w3.org/1999/xlink" x="0px" y="0px"
	 width="918px" height="704px" viewBox="0 0 918 704" enable-background="new 0 0 918 704" xml:space="preserve">
<path fill="none" stroke="#45A3BD" stroke-width="40" stroke-miterlimit="10" d="M898.714,517.695c0,22.092-17.908,40-40,40H63.286
	c-22.091,0-40-17.908-40-40V63.113c0-22.091,17.909-40,40-40h795.428c22.092,0,40,17.909,40,40V517.695z"/>
<path fill="#45A3BD" d="M857.464,382.945c0,8.283-6.716,15-15,15h-762c-8.284,0-15-6.717-15-15V85.387c0-8.284,6.716-15,15-15h762
	c8.284,0,15,6.716,15,15V382.945z"/>
<line fill="none" stroke="#45A3BD" stroke-width="40" stroke-miterlimit="10" x1="502.089" y1="636.887" x2="502.089" y2="558.168"/>
<line fill="none" stroke="#45A3BD" stroke-width="40" stroke-miterlimit="10" x1="421.964" y1="636.887" x2="421.964" y2="558.168"/>
<g>
	<path fill="none" stroke="#45A3BD" stroke-width="40" stroke-miterlimit="10" d="M402.964,616.887H274.553c-8.284,0-15,6.716-15,15
		v32c0,8.284,6.716,15,15,15h372.073c8.284,0,15-6.716,15-15v-32c0-8.284-6.716-15-15-15H521.053"/>
</g>
<circle fill="#45A3BD" cx="461.464" cy="470.5" r="33"/>
</svg>
