<?xml version="1.0" encoding="utf-8"?>
<!-- Generator: Adobe Illustrator 15.0.0, SVG Export Plug-In . SVG Version: 6.00 Build 0)  -->
<!DOCTYPE svg PUBLIC "-//W3C//DTD SVG 1.1//EN" "http://www.w3.org/Graphics/SVG/1.1/DTD/svg11.dtd">
<svg version="1.1" id="Layer_1" xmlns="http://www.w3.org/2000/svg" xmlns:xlink="http://www.w3.org/1999/xlink" x="0px" y="0px"
	 width="1174.879px" height="766px" viewBox="0 0 1174.879 766" enable-background="new 0 0 1174.879 766" xml:space="preserve">
<path fill="none" stroke="#FFFFFF" stroke-width="20" stroke-miterlimit="10" d="M1156.25,549.695c0,22.092-17.908,40-40,40h-712
	c-22.091,0-40-17.908-40-40V95.113c0-22.091,17.909-40,40-40h712c22.092,0,40,17.909,40,40V549.695z"/>
<path fill="#FFFFFF" d="M1115,414.945c0,8.281-6.716,15-15,15H421.428c-8.283,0-15-6.719-15-15V117.387c0-8.284,6.717-15,15-15H1100
	c8.284,0,15,6.716,15,15V414.945z"/>
<line fill="none" stroke="#FFFFFF" stroke-width="20" stroke-miterlimit="10" x1="800.875" y1="668.887" x2="800.875" y2="590.168"/>
<line fill="none" stroke="#FFFFFF" stroke-width="20" stroke-miterlimit="10" x1="720.75" y1="668.887" x2="720.75" y2="590.168"/>
<g>
	<path fill="none" stroke="#FFFFFF" stroke-width="20" stroke-miterlimit="10" d="M720.75,658.887H573.339c-8.283,0-15,6.716-15,15
		v32c0,8.284,6.717,15,15,15h372.073c8.284,0,15-6.716,15-15v-32c0-8.284-6.716-15-15-15H800.875"/>
</g>
<circle fill="#FFFFFF" cx="760.25" cy="502.5" r="33"/>
<path fill="none" stroke="#FFFFFF" stroke-width="20" stroke-miterlimit="10" d="M290,672.238c0,22.092-17.908,40-40,40H63
	c-22.091,0-40-17.908-40-40V217.655c0-22.091,17.909-40,40-40h187c22.092,0,40,17.909,40,40V672.238z"/>
<circle fill="#FFFFFF" cx="156.5" cy="289.404" r="33"/>
<path fill="none" stroke="#FFFFFF" stroke-width="20" stroke-miterlimit="10" d="M197.796,376.619c0,3.524-2.856,6.381-6.381,6.381
	h-69.831c-3.524,0-6.381-2.856-6.381-6.381v0.089c0-3.524,2.857-6.381,6.381-6.381h69.831c3.524,0,6.381,2.856,6.381,6.381V376.619z
	"/>
</svg>
