<?xml version="1.0" encoding="utf-8"?>
<!-- Generator: Adobe Illustrator 15.0.0, SVG Export Plug-In . SVG Version: 6.00 Build 0)  -->
<!DOCTYPE svg PUBLIC "-//W3C//DTD SVG 1.1//EN" "http://www.w3.org/Graphics/SVG/1.1/DTD/svg11.dtd">
<svg version="1.1" id="Layer_1" xmlns="http://www.w3.org/2000/svg" xmlns:xlink="http://www.w3.org/1999/xlink" x="0px" y="0px"
	 width="1122px" height="766px" viewBox="0 0 1122 766" enable-background="new 0 0 1122 766" xml:space="preserve">
<path fill="none" stroke="#FFFFFF" stroke-width="20" stroke-miterlimit="10" d="M611.402,181.669c0-22.091,17.906-40,40-40h372.979
	c22.09,0,40,17.909,40,40v372.977c0,22.094-17.91,40-40,40H651.402c-22.094,0-40-17.906-40-40V181.669z"/>
<path fill="none" stroke="#FFFFFF" stroke-width="20" stroke-miterlimit="10" d="M1061,214.844c22.092,0,40,17.909,40,40v21.667
	c0,22.092-17.908,40-40,40"/>
<path fill="none" stroke="#FFFFFF" stroke-width="20" stroke-miterlimit="10" d="M1072,391.845c22.092,0,40,17.908,40,40v52.666
	c0,22.092-17.908,40-40,40"/>
<path fill="#FFFFFF" d="M235.27,672.006c0,5.523-4.477,10-10,10h-30c-5.523,0-10-4.477-10-10l0,0c0-5.521,4.477-10,10-10h30
	C230.791,662.006,235.27,666.482,235.27,672.006L235.27,672.006z"/>
<path fill="#FFFFFF" d="M346.926,84.174H73.613c-9.542,0-17.276,7.735-17.276,17.277v505.413c0,9.543,7.734,17.275,17.276,17.275
	h273.313c9.541,0,17.276-7.732,17.276-17.275V101.452C364.204,91.91,356.467,84.174,346.926,84.174z M126.801,578.684
	c0,9.105-7.381,16.486-16.487,16.486H98.956c-9.104,0-16.486-7.381-16.486-16.486v-11.355c0-9.105,7.382-16.486,16.486-16.486
	h11.358c9.106,0,16.487,7.381,16.487,16.486V578.684z M197.377,578.826c0,9.33-7.563,16.896-16.896,16.896h-11.64
	c-9.33,0-16.895-7.564-16.895-16.896v-11.643c0-9.33,7.563-16.896,16.895-16.896h11.64c9.331,0,16.896,7.564,16.896,16.896V578.826
	L197.377,578.826z M268.245,578.734c0,9.188-7.448,16.637-16.637,16.637h-11.46c-9.188,0-16.636-7.447-16.636-16.637v-11.459
	c0-9.189,7.447-16.639,16.636-16.639h11.46c9.188,0,16.637,7.445,16.637,16.639V578.734z M339.801,578.813
	c0,9.311-7.547,16.855-16.856,16.855h-11.613c-9.313,0-16.858-7.547-16.858-16.855V567.2c0-9.313,7.547-16.857,16.858-16.857h11.613
	c9.312,0,16.856,7.547,16.856,16.857V578.813z"/>
<path fill="#FFFFFF" d="M995.113,193.657H680.668c-9.541,0-17.277,7.734-17.277,17.276v314.444c0,9.543,7.736,17.277,17.277,17.277
	h314.445c9.543,0,17.275-7.734,17.275-17.277V210.935C1012.391,201.394,1004.656,193.657,995.113,193.657z M837.891,476.755
	c-113.398-86.065-109.705-152.924-109.705-152.924c0-14.422,4.197-30.45,13.299-42.479c10.014-13.238,25.676-21.793,41.549-21.793
	c18.893,0,40.938,13.211,54.857,30.502c13.922-17.291,35.971-30.502,54.857-30.502c15.873,0,31.535,8.555,41.551,21.793
	c9.1,12.028,13.297,28.057,13.297,42.479C947.596,323.831,951.289,390.688,837.891,476.755z"/>
<g>
	<path fill="#FFFFFF" d="M689.399,141.669V80.842c0-22.091,17.907-40,40-40h216.983c22.092,0,40,17.909,40,40v60.827"/>
</g>
<g>
	<path fill="#FFFFFF" d="M986.383,589.119v95.774c0,22.091-17.908,40-40,40H729.398c-22.093,0-40-17.909-40-40v-95.774"/>
</g>
<rect x="-610" y="42.316" fill="none" stroke="#45A3BD" stroke-width="20" stroke-miterlimit="10" width="436.192" height="690.52"/>
<path fill="none" stroke="#FFFFFF" stroke-width="20" stroke-miterlimit="10" d="M411.5,688.998c0,22.092-17.908,40-40,40H50.175
	c-22.092,0-40-17.908-40-40V77.003c0-22.091,17.909-40,40-40H371.5c22.092,0,40,17.909,40,40V688.998z"/>
</svg>
