<?xml version="1.0" encoding="utf-8"?>
<!-- Generator: Adobe Illustrator 15.0.0, SVG Export Plug-In . SVG Version: 6.00 Build 0)  -->
<!DOCTYPE svg PUBLIC "-//W3C//DTD SVG 1.1//EN" "http://www.w3.org/Graphics/SVG/1.1/DTD/svg11.dtd">
<svg version="1.1" id="Layer_1" xmlns="http://www.w3.org/2000/svg" xmlns:xlink="http://www.w3.org/1999/xlink" x="0px" y="0px"
	 width="1077.833px" height="690.52px" viewBox="0 0 1077.833 690.52" enable-background="new 0 0 1077.833 690.52"
	 xml:space="preserve">
<g>
	<path fill="#45A3BD" d="M379.601,690.52H56.589C25.386,690.52,0,665.135,0,633.932V56.589C0,25.386,25.386,0,56.589,0h323.012
		c31.203,0,56.591,25.386,56.591,56.589v577.343C436.19,665.135,410.804,690.52,379.601,690.52z M56.589,37.726
		c-10.401,0-18.863,8.462-18.863,18.863v577.343c0,10.4,8.462,18.863,18.863,18.863h323.012c10.401,0,18.863-8.463,18.863-18.863
		V56.589c0-10.401-8.462-18.863-18.863-18.863H56.589z"/>
</g>
<path fill="none" stroke="#45A3BD" stroke-width="40" stroke-miterlimit="10" d="M547.672,174.848c0-22.091,17.908-40,40-40h372.979
	c22.09,0,40,17.909,40,40v372.977c0,22.092-17.91,40-40,40H587.672c-22.092,0-40-17.908-40-40V174.848z"/>
<path fill="none" stroke="#45A3BD" stroke-width="40" stroke-miterlimit="10" d="M1013.27,208.023c22.092,0,40,17.909,40,40v21.667
	c0,22.091-17.908,40-40,40"/>
<path fill="none" stroke="#45A3BD" stroke-width="40" stroke-miterlimit="10" d="M1018.27,385.024c22.092,0,40,17.908,40,40v52.666
	c0,22.092-17.908,40-40,40"/>
<path fill="#45A3BD" d="M243.27,618.69c0,5.523-4.477,10-10,10h-30c-5.523,0-10-4.477-10-10l0,0c0-5.523,4.477-10,10-10h30
	C238.792,608.69,243.27,613.167,243.27,618.69L243.27,618.69z"/>
<path fill="#45A3BD" d="M354.926,63.858H81.613c-9.542,0-17.277,7.735-17.277,17.277v489.413c0,9.543,7.735,17.277,17.277,17.277
	h273.313c9.542,0,17.277-7.734,17.277-17.277V81.136C372.203,71.594,364.468,63.858,354.926,63.858z M134.802,542.368
	c0,9.105-7.382,16.486-16.488,16.486h-11.358c-9.105,0-16.487-7.381-16.487-16.486V531.01c0-9.105,7.382-16.486,16.487-16.486
	h11.358c9.106,0,16.488,7.381,16.488,16.486V542.368z M205.378,542.51c0,9.33-7.564,16.896-16.896,16.896h-11.639
	c-9.331,0-16.896-7.566-16.896-16.896V530.87c0-9.33,7.564-16.896,16.896-16.896h11.639c9.331,0,16.896,7.566,16.896,16.896V542.51
	L205.378,542.51z M276.244,542.418c0,9.189-7.448,16.637-16.636,16.637h-11.46c-9.188,0-16.636-7.447-16.636-16.637v-11.459
	c0-9.189,7.448-16.637,16.636-16.637h11.46c9.188,0,16.636,7.445,16.636,16.637V542.418z M347.802,542.497
	c0,9.311-7.548,16.857-16.857,16.857H319.33c-9.313,0-16.859-7.547-16.859-16.857v-11.613c0-9.311,7.548-16.857,16.859-16.857
	h11.614c9.311,0,16.857,7.547,16.857,16.857V542.497z"/>
<path fill="#45A3BD" d="M931.383,186.836H616.938c-9.541,0-17.277,7.735-17.277,17.277v314.444c0,9.543,7.736,17.277,17.277,17.277
	h314.445c9.543,0,17.277-7.734,17.277-17.277V204.114C948.661,194.572,940.926,186.836,931.383,186.836z M774.161,469.934
	c-113.4-86.066-109.705-152.923-109.705-152.923c0-14.422,4.197-30.451,13.297-42.479c10.014-13.239,25.676-21.793,41.549-21.793
	c18.893,0,40.939,13.211,54.859,30.502c13.922-17.291,35.969-30.502,54.857-30.502c15.873,0,31.535,8.555,41.551,21.793
	c9.098,12.028,13.297,28.057,13.297,42.479C883.866,317.011,887.559,383.868,774.161,469.934z"/>
</svg>
