<?xml version="1.0" encoding="utf-8"?>
<!-- Generator: Adobe Illustrator 15.0.0, SVG Export Plug-In . SVG Version: 6.00 Build 0)  -->
<!DOCTYPE svg PUBLIC "-//W3C//DTD SVG 1.1//EN" "http://www.w3.org/Graphics/SVG/1.1/DTD/svg11.dtd">
<svg version="1.1" id="Layer_1" xmlns="http://www.w3.org/2000/svg" xmlns:xlink="http://www.w3.org/1999/xlink" x="0px" y="0px"
	 width="1122px" height="766px" viewBox="0 0 1122 766" enable-background="new 0 0 1122 766" xml:space="preserve">
<g>
	<path fill="#45A3BD" d="M379.6,732.836H56.588C25.386,732.836,0,707.451,0,676.248V98.905c0-31.203,25.386-56.589,56.588-56.589
		H379.6c31.203,0,56.592,25.386,56.592,56.589v577.343C436.19,707.451,410.803,732.836,379.6,732.836z M56.588,80.042
		c-10.4,0-18.862,8.462-18.862,18.863v577.343c0,10.4,8.462,18.863,18.862,18.863H379.6c10.402,0,18.863-8.463,18.863-18.863V98.905
		c0-10.401-8.461-18.863-18.863-18.863H56.588z"/>
</g>
<path fill="none" stroke="#45A3BD" stroke-width="40" stroke-miterlimit="10" d="M591.402,181.669c0-22.091,17.907-40,40-40h372.979
	c22.09,0,40,17.909,40,40v372.977c0,22.093-17.91,40-40,40H631.402c-22.093,0-40-17.907-40-40V181.669z"/>
<path fill="none" stroke="#45A3BD" stroke-width="40" stroke-miterlimit="10" d="M1057,214.844c22.092,0,40,17.909,40,40v21.667
	c0,22.092-17.908,40-40,40"/>
<path fill="none" stroke="#45A3BD" stroke-width="40" stroke-miterlimit="10" d="M1062,391.845c22.092,0,40,17.908,40,40v52.666
	c0,22.092-17.908,40-40,40"/>
<path fill="#45A3BD" d="M243.27,661.006c0,5.523-4.477,10-10,10h-30c-5.523,0-10-4.477-10-10l0,0c0-5.522,4.477-10,10-10h30
	C238.791,651.006,243.27,655.482,243.27,661.006L243.27,661.006z"/>
<path fill="#45A3BD" d="M354.926,106.174H81.613c-9.542,0-17.276,7.735-17.276,17.277v489.413c0,9.543,7.734,17.276,17.276,17.276
	h273.313c9.541,0,17.276-7.733,17.276-17.276V123.452C372.204,113.91,364.467,106.174,354.926,106.174z M134.801,584.684
	c0,9.105-7.381,16.486-16.487,16.486h-11.358c-9.104,0-16.486-7.381-16.486-16.486v-11.356c0-9.105,7.382-16.486,16.486-16.486
	h11.358c9.106,0,16.487,7.381,16.487,16.486V584.684z M205.377,584.826c0,9.33-7.563,16.896-16.896,16.896h-11.64
	c-9.33,0-16.895-7.565-16.895-16.896v-11.642c0-9.33,7.563-16.896,16.895-16.896h11.64c9.331,0,16.896,7.565,16.896,16.896V584.826
	L205.377,584.826z M276.245,584.734c0,9.188-7.448,16.637-16.637,16.637h-11.46c-9.188,0-16.636-7.447-16.636-16.637v-11.459
	c0-9.189,7.447-16.638,16.636-16.638h11.46c9.188,0,16.637,7.445,16.637,16.638V584.734z M347.801,584.813
	c0,9.311-7.547,16.856-16.857,16.856h-11.613c-9.313,0-16.858-7.547-16.858-16.856V573.2c0-9.312,7.547-16.857,16.858-16.857h11.613
	c9.312,0,16.857,7.547,16.857,16.857V584.813z"/>
<path fill="#45A3BD" d="M975.113,193.657H660.668c-9.541,0-17.277,7.734-17.277,17.276v314.444c0,9.543,7.736,17.277,17.277,17.277
	h314.445c9.543,0,17.276-7.734,17.276-17.277V210.935C992.391,201.394,984.656,193.657,975.113,193.657z M817.891,476.755
	c-113.399-86.066-109.705-152.924-109.705-152.924c0-14.422,4.197-30.45,13.298-42.479c10.014-13.238,25.676-21.793,41.549-21.793
	c18.893,0,40.938,13.211,54.858,30.502c13.922-17.291,35.97-30.502,54.857-30.502c15.873,0,31.535,8.555,41.551,21.793
	c9.099,12.028,13.297,28.057,13.297,42.479C927.596,323.831,931.289,390.688,817.891,476.755z"/>
<g>
	<path fill="#45A3BD" d="M660.398,141.669V80.842c0-22.091,17.908-40,40-40h216.984c22.092,0,40,17.909,40,40v60.827"/>
</g>
<g>
	<path fill="#45A3BD" d="M957.383,594.646v95.774c0,22.091-17.908,40-40,40H700.398c-22.092,0-40-17.909-40-40v-95.774"/>
</g>
</svg>
