<?xml version="1.0" encoding="utf-8"?>
<!-- Generator: Adobe Illustrator 15.0.0, SVG Export Plug-In . SVG Version: 6.00 Build 0)  -->
<!DOCTYPE svg PUBLIC "-//W3C//DTD SVG 1.1//EN" "http://www.w3.org/Graphics/SVG/1.1/DTD/svg11.dtd">
<svg version="1.1" xmlns="http://www.w3.org/2000/svg" xmlns:xlink="http://www.w3.org/1999/xlink" x="0px" y="0px" width="282px"
	 height="53.029px" viewBox="0 0 282 53.029" enable-background="new 0 0 282 53.029" xml:space="preserve">
<g id="Layer_1">
	<g>
		<path fill="#FFFFFF" d="M77.34,4.994v21.987h-6.749v-8.553h-5.155v8.553h-6.749V4.994h6.749v8.086h5.155V4.994H77.34z"/>
		<path fill="#FFFFFF" d="M97.442,26.981H91.32c-0.15-0.698-0.226-1.46-0.226-2.287c-1.159,1.75-2.915,2.625-5.267,2.625
			c-1.933,0-3.38-0.494-4.341-1.481c-0.961-0.988-1.442-2.121-1.442-3.399c0-1.729,0.787-3.127,2.36-4.195
			c1.573-1.068,4.362-1.71,8.368-1.925v-0.37c0-0.719-0.164-1.198-0.491-1.434c-0.328-0.236-0.808-0.355-1.442-0.355
			c-1.481,0-2.309,0.596-2.48,1.789l-5.863-0.548c0.838-3.425,3.689-5.138,8.553-5.138c1.321,0,2.535,0.132,3.641,0.395
			c1.106,0.264,1.981,0.674,2.625,1.232c0.644,0.559,1.076,1.149,1.296,1.772c0.22,0.623,0.331,1.82,0.331,3.592v6.54
			C96.942,25.038,97.109,26.101,97.442,26.981z M90.773,19.314c-2.738,0.29-4.107,1.165-4.107,2.626
			c0,0.988,0.542,1.481,1.627,1.481c0.687,0,1.272-0.204,1.755-0.612c0.484-0.407,0.725-1.31,0.725-2.706V19.314z"/>
		<path fill="#FFFFFF" d="M125.099,26.981h-6.234V16.737c0-0.688-0.099-1.168-0.298-1.442c-0.198-0.274-0.55-0.411-1.054-0.411
			c-1.204,0-1.804,0.875-1.804,2.625v9.472h-6.17V16.737c0-1.311-0.504-1.966-1.513-1.966c-1.042,0-1.563,0.655-1.563,1.966v10.244
			h-6.185V10.6h5.766v2.207c1.031-1.697,2.529-2.545,4.494-2.545c2.116,0,3.651,0.849,4.606,2.545
			c1.063-1.697,2.695-2.545,4.897-2.545c1.052,0,1.979,0.221,2.779,0.66c0.8,0.441,1.38,1.007,1.739,1.7
			c0.36,0.692,0.54,1.763,0.54,3.213V26.981z"/>
		<path fill="#FFFFFF" d="M153.32,26.981h-6.234V16.737c0-0.688-0.1-1.168-0.299-1.442c-0.198-0.274-0.55-0.411-1.055-0.411
			c-1.203,0-1.804,0.875-1.804,2.625v9.472h-6.17V16.737c0-1.311-0.504-1.966-1.513-1.966c-1.042,0-1.563,0.655-1.563,1.966v10.244
			h-6.185V10.6h5.766v2.207c1.031-1.697,2.529-2.545,4.494-2.545c2.116,0,3.651,0.849,4.606,2.545
			c1.064-1.697,2.695-2.545,4.897-2.545c1.052,0,1.979,0.221,2.778,0.66c0.8,0.441,1.38,1.007,1.74,1.7
			c0.358,0.692,0.54,1.763,0.54,3.213V26.981z"/>
		<path fill="#FFFFFF" d="M167.543,21.102l5.991,0.403c-0.354,1.611-1.259,2.982-2.714,4.116c-1.455,1.133-3.422,1.699-5.902,1.699
			c-2.761,0-4.963-0.797-6.605-2.392c-1.643-1.594-2.464-3.573-2.464-5.935c0-2.448,0.81-4.516,2.432-6.202
			c1.621-1.686,3.785-2.529,6.491-2.529c2.621,0,4.738,0.795,6.354,2.384c1.616,1.589,2.425,3.753,2.425,6.492
			c0,0.226-0.006,0.537-0.017,0.934h-10.969c0.021,1.031,0.204,1.796,0.548,2.295s0.999,0.749,1.965,0.749
			C166.475,23.115,167.295,22.444,167.543,21.102z M167.107,16.85c-0.012-1.106-0.232-1.85-0.666-2.231
			c-0.434-0.381-0.972-0.572-1.612-0.572c-1.521,0-2.28,0.934-2.28,2.803H167.107z"/>
		<path fill="#FFFFFF" d="M182.216,26.981h-6.152V10.6h5.348v3.382c0.611-2.458,2.035-3.688,4.268-3.688
			c0.227,0,0.537,0.021,0.935,0.064v5.718c-0.45-0.107-0.854-0.161-1.207-0.161c-2.127,0-3.19,1.187-3.19,3.56V26.981z"/>
		<path fill="#FFFFFF" d="M187.323,22.342l5.073-0.692c0.289,1.181,1.438,1.771,3.447,1.771c1.663,0,2.497-0.322,2.497-0.966
			c0-0.279-0.162-0.497-0.484-0.652c-0.321-0.156-1.084-0.314-2.287-0.476c-3.329-0.462-5.407-1.184-6.233-2.167
			c-0.826-0.982-1.241-2.075-1.241-3.277c0-1.675,0.698-3.031,2.096-4.067c1.395-1.036,3.226-1.555,5.491-1.555
			c3.974,0,6.508,1.434,7.603,4.301l-4.863,0.918c-0.452-0.966-1.402-1.449-2.852-1.449c-0.688,0-1.2,0.094-1.538,0.282
			c-0.339,0.188-0.507,0.374-0.507,0.556c0,0.537,0.515,0.864,1.546,0.98c2.685,0.297,4.506,0.601,5.461,0.913
			c0.956,0.312,1.771,0.881,2.448,1.709c0.677,0.828,1.015,1.827,1.015,2.998c0,1.794-0.749,3.218-2.247,4.271
			s-3.563,1.58-6.193,1.58C191.118,27.319,188.375,25.66,187.323,22.342z"/>
		<path fill="#FFFFFF" d="M216.523,10.6v4.172h-3.269v6.04c0,0.828,0.155,1.319,0.467,1.474c0.311,0.156,0.633,0.233,0.966,0.233
			c0.516,0,1.128-0.091,1.836-0.273v4.574c-1.267,0.247-2.512,0.371-3.736,0.371c-1.976,0-3.428-0.424-4.356-1.272
			c-0.93-0.849-1.395-2.202-1.395-4.059l0.017-1.917v-5.171h-2.448V10.6h2.448l0.097-5.332l6.105-0.097V10.6H216.523z"/>
		<path fill="#FFFFFF" d="M226.673,27.319c-2.717,0-4.875-0.845-6.476-2.537c-1.601-1.692-2.399-3.675-2.399-5.952
			c0-2.448,0.835-4.488,2.504-6.121c1.67-1.633,3.843-2.449,6.517-2.449c2.694,0,4.861,0.806,6.499,2.417
			c1.637,1.61,2.456,3.629,2.456,6.056c0,2.449-0.83,4.492-2.488,6.129C231.626,26.5,229.422,27.319,226.673,27.319z M226.77,23.421
			c0.998,0,1.607-0.518,1.827-1.555c0.221-1.036,0.331-2.118,0.331-3.245c0-1.536-0.155-2.642-0.467-3.319
			c-0.312-0.676-0.869-1.015-1.675-1.015c-0.741,0-1.284,0.349-1.628,1.047s-0.515,1.847-0.515,3.447
			c0,1.879,0.177,3.123,0.531,3.729C225.528,23.118,226.062,23.421,226.77,23.421z"/>
		<path fill="#FFFFFF" d="M254.266,26.981h-6.427V16.672c0-0.849-0.132-1.39-0.395-1.627c-0.264-0.236-0.595-0.354-0.991-0.354
			c-1.171,0-1.755,0.816-1.755,2.448v9.842h-6.428V10.6h5.96v2.319c0.881-1.771,2.454-2.658,4.72-2.658
			c1.192,0,2.198,0.229,3.021,0.685c0.82,0.457,1.409,1.047,1.764,1.772c0.354,0.725,0.531,1.983,0.531,3.777V26.981z"/>
		<path fill="#FFFFFF" d="M268.474,21.102l5.991,0.403c-0.354,1.611-1.259,2.982-2.714,4.116c-1.455,1.133-3.422,1.699-5.902,1.699
			c-2.761,0-4.963-0.797-6.605-2.392c-1.643-1.594-2.464-3.573-2.464-5.935c0-2.448,0.81-4.516,2.432-6.202
			c1.621-1.686,3.785-2.529,6.491-2.529c2.621,0,4.738,0.795,6.354,2.384c1.616,1.589,2.425,3.753,2.425,6.492
			c0,0.226-0.006,0.537-0.017,0.934h-10.969c0.021,1.031,0.204,1.796,0.548,2.295s0.999,0.749,1.964,0.749
			C267.405,23.115,268.226,22.444,268.474,21.102z M268.038,16.85c-0.012-1.106-0.232-1.85-0.667-2.231
			c-0.433-0.381-0.971-0.572-1.612-0.572c-1.521,0-2.279,0.934-2.279,2.803H268.038z"/>
	</g>
	<g>
		<path fill="#FFFFFF" d="M61.167,34.65h-2.204v-2.291h2.204V34.65z M61.167,45.551h-2.204V35.79h2.204V45.551z"/>
		<path fill="#FFFFFF" d="M73.36,45.551h-2.204v-6.099c0-0.644-0.149-1.129-0.445-1.455c-0.296-0.325-0.654-0.487-1.073-0.487
			c-0.573,0-1.076,0.251-1.507,0.753c-0.432,0.503-0.648,1.26-0.648,2.272v5.016H65.28V35.79h2.01v2.262
			c0.702-1.643,1.688-2.465,2.958-2.465c0.856,0,1.589,0.271,2.199,0.813c0.609,0.541,0.914,1.491,0.914,2.851V45.551z"/>
		<path fill="#FFFFFF" d="M76.274,43.309l2.068-0.396c0.316,0.792,1.011,1.188,2.087,1.188c1.366,0,2.049-0.403,2.049-1.208
			c0-0.257-0.106-0.47-0.319-0.638c-0.212-0.168-0.463-0.281-0.753-0.338l-1.778-0.339c-1.972-0.379-2.958-1.343-2.958-2.889
			c0-0.864,0.312-1.596,0.938-2.199c0.625-0.602,1.556-0.904,2.793-0.904c2.062,0,3.321,0.758,3.778,2.272l-1.961,0.396
			c-0.207-0.734-0.793-1.102-1.759-1.102c-1.173,0-1.759,0.367-1.759,1.102c0,0.509,0.474,0.86,1.421,1.054l2.097,0.435
			c1.629,0.335,2.445,1.269,2.445,2.803c0,1.076-0.419,1.879-1.256,2.411c-0.837,0.532-1.833,0.798-2.987,0.798
			c-0.999,0-1.881-0.202-2.648-0.604C77.005,44.748,76.506,44.134,76.274,43.309z"/>
		<path fill="#FFFFFF" d="M95.946,45.551h-2.049v-2.107c-0.554,1.54-1.582,2.31-3.083,2.31c-0.889,0-1.595-0.275-2.116-0.827
			c-0.522-0.551-0.783-1.319-0.783-2.305V35.79h2.251v6.36c0,0.702,0.154,1.163,0.464,1.382s0.612,0.328,0.909,0.328
			c0.477,0,0.963-0.213,1.459-0.643c0.496-0.428,0.744-1.342,0.744-2.74V35.79h2.204V45.551z"/>
		<path fill="#FFFFFF" d="M102.264,45.551h-2.204V35.79h1.991v2.33c0.283-0.908,0.673-1.572,1.169-1.991
			c0.496-0.418,1.005-0.629,1.527-0.629c0.07,0,0.167,0.003,0.29,0.01v2.369c-1.121,0-1.863,0.357-2.227,1.072
			c-0.365,0.715-0.546,1.408-0.546,2.078V45.551z"/>
		<path fill="#FFFFFF" d="M116.437,45.551h-2.097c-0.188-0.593-0.3-1.25-0.339-1.972c-0.586,1.45-1.688,2.175-3.305,2.175
			c-0.973,0-1.754-0.285-2.343-0.855c-0.59-0.571-0.885-1.287-0.885-2.15c0-2.242,1.968-3.363,5.905-3.363
			c0.154,0,0.364,0.003,0.628,0.01V38.66c0-1.011-0.689-1.517-2.068-1.517c-1.34,0-2.101,0.506-2.281,1.517l-1.875-0.28
			c0.103-0.812,0.522-1.48,1.256-2.005c0.734-0.525,1.798-0.788,3.19-0.788c0.753,0,1.369,0.063,1.845,0.188
			c0.477,0.126,0.88,0.339,1.208,0.638c0.329,0.3,0.556,0.625,0.682,0.977c0.126,0.351,0.188,0.945,0.188,1.783v4.407
			C116.146,44.218,116.243,44.875,116.437,45.551z M114.001,40.583c-2.848,0-4.271,0.68-4.271,2.04c0,0.405,0.144,0.752,0.43,1.039
			c0.287,0.287,0.72,0.43,1.3,0.43c0.837,0,1.47-0.266,1.899-0.797c0.428-0.532,0.643-1.136,0.643-1.813V40.583z"/>
		<path fill="#FFFFFF" d="M128.33,45.551h-2.204v-6.099c0-0.644-0.149-1.129-0.445-1.455c-0.296-0.325-0.654-0.487-1.073-0.487
			c-0.573,0-1.076,0.251-1.507,0.753c-0.432,0.503-0.648,1.26-0.648,2.272v5.016h-2.203V35.79h2.01v2.262
			c0.702-1.643,1.688-2.465,2.958-2.465c0.856,0,1.589,0.271,2.199,0.813c0.609,0.541,0.914,1.491,0.914,2.851V45.551z"/>
		<path fill="#FFFFFF" d="M138.066,41.965l1.895,0.193c-0.245,1.225-0.718,2.13-1.421,2.716c-0.703,0.586-1.55,0.88-2.542,0.88
			c-1.347,0-2.382-0.491-3.107-1.474c-0.726-0.983-1.088-2.186-1.088-3.61c0-1.469,0.396-2.684,1.188-3.643
			c0.793-0.96,1.85-1.441,3.17-1.441c2.126,0,3.392,1.122,3.798,3.364l-1.895,0.261c-0.167-1.211-0.763-1.816-1.788-1.816
			c-0.748,0-1.29,0.327-1.629,0.98c-0.338,0.654-0.507,1.445-0.507,2.373c0,0.986,0.175,1.747,0.527,2.281
			c0.351,0.535,0.842,0.803,1.474,0.803C137.11,43.831,137.75,43.209,138.066,41.965z"/>
		<path fill="#FFFFFF" d="M149.322,42.439l1.99,0.271c-0.257,0.882-0.76,1.611-1.508,2.184c-0.747,0.574-1.685,0.86-2.812,0.86
			c-1.354,0-2.442-0.454-3.267-1.363c-0.825-0.908-1.237-2.14-1.237-3.692c0-1.475,0.416-2.697,1.247-3.663
			c0.831-0.967,1.959-1.45,3.382-1.45c1.393,0,2.468,0.478,3.228,1.431c0.761,0.954,1.141,2.178,1.141,3.672l-0.01,0.251h-6.697
			c0,0.664,0.063,1.196,0.188,1.595c0.126,0.399,0.376,0.747,0.749,1.043c0.373,0.297,0.841,0.445,1.401,0.445
			C148.208,44.024,148.942,43.496,149.322,42.439z M149.187,39.521c-0.007-0.702-0.217-1.275-0.633-1.721
			c-0.416-0.444-0.929-0.666-1.541-0.666c-0.606,0-1.112,0.207-1.518,0.623c-0.406,0.415-0.645,1.003-0.716,1.764H149.187z"/>
		<path fill="#FFFFFF" d="M171.87,37.549l1.981,0.348c-0.284,1.881-1.067,3.544-2.349,4.987c0.451,0.49,0.783,0.787,1,0.894
			c0.216,0.106,0.472,0.16,0.769,0.16c0.135,0,0.328-0.016,0.58-0.049v1.846l-0.918,0.02c-0.6,0-1.091-0.087-1.475-0.261
			c-0.383-0.174-0.878-0.557-1.483-1.151c-1.321,0.941-2.757,1.412-4.311,1.412c-1.475,0-2.676-0.398-3.6-1.194
			c-0.925-0.795-1.387-1.776-1.387-2.943c0-0.741,0.216-1.447,0.647-2.117c0.431-0.669,1.358-1.321,2.783-1.952
			c-0.767-0.902-1.15-1.736-1.15-2.503c0-0.857,0.322-1.552,0.967-2.087c0.645-0.535,1.469-0.802,2.474-0.802
			c1.03,0,1.875,0.257,2.533,0.772c0.656,0.516,0.984,1.218,0.984,2.107c0,0.625-0.221,1.228-0.666,1.808
			c-0.445,0.58-1.079,1.037-1.904,1.373l2.861,3.266C171.109,40.323,171.663,39.012,171.87,37.549z M165.26,38.999
			c-1.314,0.593-1.973,1.417-1.973,2.474c0,0.708,0.256,1.277,0.77,1.706c0.512,0.428,1.157,0.643,1.938,0.643
			c0.96,0,1.864-0.313,2.716-0.938L165.26,38.999z M166.265,36.776c1.121-0.471,1.682-1.05,1.682-1.74
			c0-0.374-0.135-0.666-0.406-0.879c-0.271-0.213-0.59-0.319-0.957-0.319c-0.373,0-0.7,0.108-0.98,0.324
			c-0.28,0.215-0.421,0.498-0.421,0.846C165.182,35.574,165.542,36.164,166.265,36.776z"/>
		<path fill="#FFFFFF" d="M189.074,41.965l1.895,0.193c-0.244,1.225-0.719,2.13-1.42,2.716c-0.703,0.586-1.55,0.88-2.543,0.88
			c-1.347,0-2.382-0.491-3.106-1.474s-1.088-2.186-1.088-3.61c0-1.469,0.396-2.684,1.189-3.643c0.791-0.96,1.849-1.441,3.169-1.441
			c2.127,0,3.393,1.122,3.799,3.364l-1.895,0.261c-0.167-1.211-0.764-1.816-1.787-1.816c-0.747,0-1.291,0.327-1.629,0.98
			c-0.339,0.654-0.508,1.445-0.508,2.373c0,0.986,0.176,1.747,0.526,2.281c0.353,0.535,0.844,0.803,1.475,0.803
			C188.117,43.831,188.759,43.209,189.074,41.965z"/>
		<path fill="#FFFFFF" d="M197.942,45.754c-1.443,0-2.546-0.519-3.305-1.556c-0.762-1.038-1.141-2.227-1.141-3.566
			c0-1.443,0.42-2.646,1.262-3.605c0.84-0.96,1.95-1.441,3.328-1.441c1.308,0,2.384,0.468,3.224,1.402
			c0.842,0.934,1.262,2.149,1.262,3.644c0,1.54-0.437,2.778-1.311,3.715C200.39,45.286,199.282,45.754,197.942,45.754z
			 M198.021,43.938c1.481,0,2.222-1.105,2.222-3.315c0-0.999-0.177-1.786-0.531-2.364c-0.354-0.577-0.898-0.864-1.634-0.864
			c-0.759,0-1.324,0.297-1.691,0.894s-0.551,1.387-0.551,2.373c0,1.063,0.196,1.875,0.586,2.436S197.343,43.938,198.021,43.938z"/>
		<path fill="#FFFFFF" d="M213.16,35.79l-3.315,9.762h-1.826l-3.393-9.762h2.301l2.279,6.621l2.224-6.621H213.16z"/>
		<path fill="#FFFFFF" d="M222.104,42.439l1.991,0.271c-0.258,0.882-0.76,1.611-1.508,2.184c-0.747,0.574-1.685,0.86-2.812,0.86
			c-1.354,0-2.443-0.454-3.268-1.363c-0.824-0.908-1.237-2.14-1.237-3.692c0-1.475,0.416-2.697,1.247-3.663
			c0.831-0.967,1.958-1.45,3.383-1.45c1.391,0,2.468,0.478,3.228,1.431c0.761,0.954,1.141,2.178,1.141,3.672l-0.01,0.251h-6.697
			c0,0.664,0.063,1.196,0.188,1.595c0.126,0.399,0.375,0.747,0.749,1.043c0.373,0.297,0.841,0.445,1.401,0.445
			C220.99,44.024,221.725,43.496,222.104,42.439z M221.97,39.521c-0.007-0.702-0.218-1.275-0.633-1.721
			c-0.416-0.444-0.93-0.666-1.541-0.666c-0.606,0-1.112,0.207-1.518,0.623c-0.406,0.415-0.645,1.003-0.716,1.764H221.97z"/>
		<path fill="#FFFFFF" d="M229.948,45.551h-2.204V35.79h1.991v2.33c0.283-0.908,0.673-1.572,1.17-1.991
			c0.495-0.418,1.004-0.629,1.525-0.629c0.071,0,0.169,0.003,0.291,0.01v2.369c-1.121,0-1.864,0.357-2.229,1.072
			c-0.363,0.715-0.545,1.408-0.545,2.078V45.551z"/>
	</g>
	<circle fill="none" stroke="#FFFFFF" stroke-width="2" cx="25.76" cy="25.429" r="20.452"/>
	<path fill="#FFFFFF" d="M35.135,21.823c0,0.607-0.493,1.1-1.1,1.1H17.486c-0.607,0-1.1-0.493-1.1-1.1v-9.951
		c0-0.607,0.492-1.1,1.1-1.1h16.549c0.607,0,1.1,0.493,1.1,1.1V21.823z"/>
	<rect x="23.314" y="24.33" fill="#FFFFFF" width="4.893" height="3.817"/>
	<rect x="23.314" y="30.629" fill="#FFFFFF" width="4.893" height="2.905"/>
	<rect x="23.314" y="35.843" fill="#FFFFFF" width="4.893" height="2.309"/>
	<rect x="23.314" y="40.736" fill="#FFFFFF" width="4.893" height="1.649"/>
</g>
<g id="Layer_1_copy" display="none">
	<g display="inline">
		<polygon points="89.236,27.218 92.854,27.218 92.854,33.223 97.592,33.223 97.592,17.788 92.854,17.788 92.854,23.464 
			89.236,23.464 89.236,17.788 84.498,17.788 84.498,33.223 89.236,33.223 		"/>
		<path d="M111.354,26.393c0-1.244-0.078-2.084-0.232-2.522c-0.155-0.437-0.458-0.852-0.91-1.244
			c-0.453-0.392-1.067-0.68-1.843-0.865c-0.776-0.185-1.628-0.277-2.556-0.277c-3.415,0-5.416,1.203-6.004,3.607l4.116,0.385
			c0.121-0.837,0.701-1.255,1.741-1.255c0.445,0,0.782,0.083,1.012,0.249c0.23,0.166,0.345,0.501,0.345,1.006v0.26
			c-2.812,0.151-4.77,0.602-5.874,1.352c-1.104,0.75-1.657,1.732-1.657,2.945c0,0.897,0.337,1.693,1.012,2.386
			c0.674,0.693,1.69,1.04,3.047,1.04c1.651,0,2.883-0.614,3.697-1.843c0,0.581,0.053,1.116,0.158,1.605h4.297
			c-0.234-0.618-0.351-1.364-0.351-2.239V26.393z M107.022,28.395c0,0.98-0.169,1.613-0.509,1.899
			c-0.339,0.287-0.75,0.43-1.232,0.43c-0.762,0-1.142-0.347-1.142-1.04c0-1.025,0.961-1.64,2.883-1.843V28.395z"/>
		<path d="M131.119,33.223v-7.825c0-1.018-0.126-1.77-0.379-2.256c-0.252-0.486-0.66-0.884-1.221-1.193
			c-0.562-0.309-1.212-0.463-1.951-0.463c-1.545,0-2.691,0.596-3.438,1.787c-0.671-1.191-1.749-1.787-3.234-1.787
			c-1.379,0-2.431,0.596-3.155,1.787v-1.549h-4.048v11.5h4.342v-7.191c0-0.92,0.366-1.38,1.097-1.38c0.708,0,1.063,0.46,1.063,1.38
			v7.191h4.331v-6.649c0-1.229,0.422-1.843,1.267-1.843c0.354,0,0.601,0.096,0.74,0.289c0.14,0.192,0.209,0.53,0.209,1.012v7.191
			H131.119z"/>
		<path d="M149.33,21.949c-0.562-0.309-1.212-0.463-1.95-0.463c-1.546,0-2.691,0.596-3.438,1.787
			c-0.671-1.191-1.749-1.787-3.234-1.787c-1.379,0-2.431,0.596-3.155,1.787v-1.549h-4.048v11.5h4.342v-7.191
			c0-0.92,0.366-1.38,1.097-1.38c0.708,0,1.063,0.46,1.063,1.38v7.191h4.331v-6.649c0-1.229,0.422-1.843,1.267-1.843
			c0.354,0,0.601,0.096,0.74,0.289c0.14,0.192,0.21,0.53,0.21,1.012v7.191h4.376v-7.825c0-1.018-0.127-1.77-0.379-2.256
			C150.299,22.656,149.892,22.258,149.33,21.949z"/>
		<path d="M163.216,32.267c1.021-0.795,1.657-1.758,1.905-2.889l-4.206-0.283c-0.174,0.942-0.75,1.414-1.73,1.414
			c-0.678,0-1.138-0.175-1.379-0.526s-0.37-0.888-0.385-1.611h7.7c0.008-0.279,0.012-0.498,0.012-0.656
			c0-1.922-0.567-3.441-1.702-4.557c-1.135-1.115-2.621-1.673-4.461-1.673c-1.899,0-3.419,0.592-4.557,1.775
			c-1.139,1.184-1.707,2.635-1.707,4.354c0,1.658,0.576,3.047,1.729,4.167c1.153,1.12,2.699,1.679,4.637,1.679
			C160.813,33.46,162.194,33.063,163.216,32.267z M159.01,24.143c0.45,0,0.828,0.134,1.132,0.401c0.305,0.268,0.46,0.79,0.468,1.566
			h-3.2C157.409,24.798,157.942,24.143,159.01,24.143z"/>
		<path d="M173.455,25.454c0.248,0,0.531,0.038,0.848,0.113v-4.014c-0.279-0.03-0.497-0.045-0.656-0.045
			c-1.567,0-2.566,0.863-2.996,2.589v-2.375h-3.754v11.5h4.319v-5.27C171.216,26.288,171.962,25.454,173.455,25.454z"/>
		<path d="M184.073,26.048c-0.671-0.219-1.949-0.432-3.834-0.641c-0.724-0.082-1.085-0.312-1.085-0.688
			c0-0.128,0.118-0.258,0.355-0.39c0.237-0.132,0.598-0.198,1.08-0.198c1.018,0,1.685,0.339,2.002,1.018l3.414-0.645
			c-0.769-2.013-2.548-3.019-5.337-3.019c-1.591,0-2.876,0.364-3.855,1.091c-0.98,0.727-1.471,1.679-1.471,2.855
			c0,0.844,0.291,1.611,0.871,2.301c0.58,0.69,2.039,1.197,4.376,1.521c0.845,0.113,1.38,0.225,1.605,0.334
			c0.227,0.109,0.34,0.262,0.34,0.458c0,0.452-0.585,0.678-1.753,0.678c-1.41,0-2.217-0.415-2.42-1.244l-3.562,0.486
			c0.738,2.33,2.664,3.494,5.778,3.494c1.847,0,3.296-0.37,4.348-1.109s1.577-1.739,1.577-2.999c0-0.822-0.237-1.523-0.712-2.104
			C185.316,26.667,184.744,26.267,184.073,26.048z"/>
		<path d="M188.651,28.281l-0.012,1.346c0,1.304,0.326,2.254,0.979,2.85c0.652,0.595,1.672,0.893,3.059,0.893
			c0.859,0,1.733-0.087,2.623-0.26v-3.211c-0.497,0.128-0.927,0.192-1.289,0.192c-0.233,0-0.46-0.055-0.678-0.164
			c-0.219-0.109-0.328-0.454-0.328-1.035v-4.24h2.295v-2.929h-2.295v-3.811l-4.286,0.068l-0.067,3.743h-1.719v2.929h1.719V28.281z"
			/>
		<path d="M202.526,21.485c-1.877,0-3.402,0.573-4.574,1.719s-1.758,2.578-1.758,4.297c0,1.598,0.561,2.991,1.685,4.178
			c1.123,1.188,2.639,1.781,4.546,1.781c1.93,0,3.477-0.575,4.642-1.724c1.164-1.149,1.747-2.584,1.747-4.303
			c0-1.704-0.575-3.121-1.725-4.251C205.939,22.051,204.418,21.485,202.526,21.485z M203.775,29.632
			c-0.154,0.728-0.582,1.091-1.283,1.091c-0.497,0-0.871-0.213-1.119-0.639c-0.249-0.426-0.373-1.299-0.373-2.618
			c0-1.124,0.12-1.93,0.361-2.42s0.622-0.735,1.143-0.735c0.565,0,0.957,0.238,1.176,0.712c0.219,0.475,0.328,1.251,0.328,2.33
			C204.008,28.146,203.93,28.905,203.775,29.632z"/>
		<path d="M220.184,21.966c-0.577-0.32-1.283-0.48-2.12-0.48c-1.591,0-2.695,0.622-3.313,1.866v-1.628h-4.184v11.5h4.512v-6.909
			c0-1.146,0.41-1.719,1.232-1.719c0.278,0,0.511,0.083,0.695,0.249c0.185,0.166,0.277,0.546,0.277,1.142v7.237h4.512v-7.361
			c0-1.259-0.125-2.143-0.373-2.651C221.173,22.701,220.76,22.287,220.184,21.966z"/>
		<path d="M235.986,27.716c0-1.922-0.567-3.441-1.702-4.557c-1.135-1.115-2.621-1.673-4.461-1.673c-1.899,0-3.419,0.592-4.557,1.775
			c-1.139,1.184-1.707,2.635-1.707,4.354c0,1.658,0.576,3.047,1.729,4.167c1.153,1.12,2.699,1.679,4.637,1.679
			c1.741,0,3.122-0.397,4.144-1.193s1.657-1.758,1.905-2.889l-4.206-0.283c-0.174,0.942-0.75,1.414-1.73,1.414
			c-0.678,0-1.138-0.175-1.379-0.526s-0.37-0.888-0.385-1.611h7.7C235.982,28.093,235.986,27.874,235.986,27.716z M228.263,26.11
			c0-1.312,0.533-1.968,1.601-1.968c0.45,0,0.828,0.134,1.132,0.401c0.305,0.268,0.46,0.79,0.468,1.566H228.263z"/>
		<rect x="84.692" y="39.406" width="1.547" height="6.853"/>
		<rect x="84.692" y="36.998" width="1.547" height="1.608"/>
		<path d="M92.614,39.264c-0.891,0-1.583,0.577-2.076,1.73v-1.588h-1.411v6.853h1.547v-3.521c0-0.71,0.151-1.242,0.455-1.595
			c0.303-0.353,0.656-0.529,1.058-0.529c0.294,0,0.545,0.114,0.753,0.342c0.208,0.229,0.313,0.569,0.313,1.021v4.281h1.547v-4.423
			c0-0.955-0.214-1.622-0.641-2.001C93.729,39.454,93.215,39.264,92.614,39.264z"/>
		<path d="M101.017,42.181l-1.472-0.305c-0.665-0.136-0.998-0.382-0.998-0.74c0-0.516,0.412-0.773,1.235-0.773
			c0.678,0,1.09,0.258,1.235,0.773l1.377-0.278c-0.321-1.063-1.205-1.595-2.652-1.595c-0.869,0-1.522,0.212-1.961,0.635
			c-0.439,0.423-0.658,0.937-0.658,1.543c0,1.085,0.692,1.762,2.076,2.028l1.249,0.238c0.204,0.041,0.38,0.12,0.529,0.237
			c0.149,0.118,0.224,0.267,0.224,0.448c0,0.565-0.479,0.848-1.438,0.848c-0.755,0-1.244-0.278-1.465-0.834l-1.452,0.278
			c0.163,0.579,0.513,1.01,1.051,1.292c0.538,0.283,1.158,0.424,1.859,0.424c0.81,0,1.509-0.187,2.097-0.56
			c0.588-0.373,0.882-0.937,0.882-1.692C102.733,43.072,102.161,42.417,101.017,42.181z"/>
		<path d="M109.107,42.697c0,0.981-0.174,1.623-0.522,1.923c-0.348,0.301-0.689,0.451-1.024,0.451c-0.208,0-0.42-0.077-0.638-0.23
			s-0.326-0.477-0.326-0.97v-4.464h-1.581v4.797c0,0.692,0.183,1.231,0.549,1.618s0.862,0.58,1.486,0.58
			c1.054,0,1.775-0.541,2.164-1.622v1.479h1.438v-6.853h-1.547V42.697z"/>
		<path d="M115.76,39.644c-0.348,0.294-0.622,0.76-0.821,1.397v-1.635h-1.397v6.853h1.547v-3.175c0-0.47,0.127-0.957,0.383-1.458
			c0.255-0.502,0.777-0.753,1.563-0.753v-1.663c-0.086-0.004-0.154-0.007-0.203-0.007C116.466,39.203,116.108,39.35,115.76,39.644z"
			/>
		<path d="M124.835,41.781c0-0.588-0.044-1.005-0.132-1.251s-0.248-0.475-0.479-0.686c-0.23-0.21-0.513-0.359-0.848-0.448
			c-0.334-0.088-0.767-0.132-1.295-0.132c-0.977,0-1.724,0.185-2.239,0.553s-0.81,0.838-0.882,1.408l1.316,0.197
			c0.126-0.71,0.66-1.065,1.601-1.065c0.968,0,1.452,0.355,1.452,1.065v0.516c-0.186-0.004-0.333-0.007-0.441-0.007
			c-2.764,0-4.146,0.787-4.146,2.361c0,0.606,0.207,1.109,0.621,1.509c0.414,0.4,0.962,0.601,1.645,0.601
			c1.135,0,1.909-0.509,2.32-1.527c0.027,0.507,0.106,0.968,0.238,1.384h1.472c-0.136-0.475-0.204-0.936-0.204-1.384V41.781z
			 M123.329,43.402c0,0.475-0.15,0.899-0.451,1.272c-0.301,0.373-0.745,0.56-1.333,0.56c-0.407,0-0.711-0.101-0.913-0.302
			c-0.201-0.202-0.302-0.445-0.302-0.729c0-0.955,1-1.432,2.999-1.432V43.402z"/>
		<path d="M131.203,39.264c-0.891,0-1.583,0.577-2.076,1.73v-1.588h-1.411v6.853h1.547v-3.521c0-0.71,0.151-1.242,0.455-1.595
			c0.303-0.353,0.656-0.529,1.058-0.529c0.294,0,0.545,0.114,0.753,0.342c0.208,0.229,0.313,0.569,0.313,1.021v4.281h1.547v-4.423
			c0-0.955-0.214-1.622-0.641-2.001C132.318,39.454,131.804,39.264,131.203,39.264z"/>
		<path d="M138.968,40.533c0.719,0,1.137,0.425,1.255,1.275l1.33-0.183c-0.285-1.574-1.174-2.361-2.667-2.361
			c-0.927,0-1.669,0.337-2.226,1.011c-0.556,0.674-0.834,1.526-0.834,2.558c0,1,0.254,1.844,0.764,2.534
			c0.509,0.69,1.236,1.035,2.181,1.035c0.696,0,1.291-0.206,1.784-0.618c0.493-0.411,0.825-1.047,0.998-1.906l-1.33-0.136
			c-0.222,0.873-0.671,1.31-1.35,1.31c-0.443,0-0.788-0.188-1.035-0.563c-0.247-0.375-0.37-0.909-0.37-1.601
			c0-0.651,0.119-1.207,0.356-1.666C138.062,40.762,138.443,40.533,138.968,40.533z"/>
		<path d="M146.577,39.264c-1,0-1.791,0.339-2.375,1.018c-0.583,0.678-0.875,1.536-0.875,2.571c0,1.09,0.29,1.954,0.869,2.592
			s1.343,0.957,2.293,0.957c0.791,0,1.449-0.201,1.974-0.604c0.525-0.402,0.878-0.914,1.059-1.533l-1.397-0.19
			c-0.267,0.742-0.782,1.113-1.547,1.113c-0.394,0-0.722-0.104-0.984-0.313c-0.262-0.208-0.438-0.452-0.526-0.732
			c-0.088-0.28-0.132-0.654-0.132-1.12h4.702l0.007-0.176c0-1.049-0.267-1.909-0.801-2.578
			C148.31,39.599,147.555,39.264,146.577,39.264z M144.935,42.025c0.05-0.534,0.217-0.947,0.502-1.238
			c0.285-0.292,0.64-0.438,1.065-0.438c0.43,0,0.79,0.156,1.082,0.468c0.292,0.313,0.439,0.715,0.444,1.208H144.935z"/>
		<path d="M163.953,40.641c-0.146,1.027-0.534,1.947-1.167,2.761l-2.009-2.293c0.579-0.235,1.024-0.557,1.337-0.963
			c0.313-0.407,0.468-0.83,0.468-1.269c0-0.624-0.23-1.117-0.691-1.479c-0.462-0.362-1.055-0.542-1.778-0.542
			c-0.705,0-1.284,0.188-1.736,0.563s-0.679,0.864-0.679,1.465c0,0.539,0.27,1.124,0.808,1.757c-1,0.443-1.651,0.9-1.954,1.371
			s-0.454,0.966-0.454,1.486c0,0.819,0.324,1.507,0.974,2.066c0.648,0.559,1.491,0.838,2.526,0.838c1.091,0,2.099-0.33,3.026-0.991
			c0.425,0.417,0.772,0.686,1.041,0.808c0.27,0.122,0.614,0.183,1.035,0.183l0.645-0.014v-1.296
			c-0.177,0.023-0.313,0.034-0.407,0.034c-0.208,0-0.388-0.038-0.539-0.112c-0.152-0.075-0.386-0.284-0.702-0.627
			c0.899-1.013,1.449-2.18,1.648-3.501L163.953,40.641z M159.553,38.263c0.197-0.151,0.427-0.227,0.688-0.227
			c0.258,0,0.482,0.074,0.672,0.224c0.19,0.149,0.285,0.355,0.285,0.617c0,0.484-0.394,0.891-1.181,1.222
			c-0.507-0.43-0.76-0.844-0.76-1.242C159.258,38.613,159.356,38.415,159.553,38.263z M159.828,45.044
			c-0.548,0-1.001-0.15-1.36-0.451c-0.36-0.301-0.54-0.7-0.54-1.198c0-0.742,0.462-1.32,1.385-1.737l2.422,2.728
			C161.137,44.825,160.502,45.044,159.828,45.044z"/>
		<path d="M174.775,40.533c0.719,0,1.138,0.425,1.255,1.275l1.33-0.183c-0.285-1.574-1.174-2.361-2.667-2.361
			c-0.927,0-1.669,0.337-2.225,1.011c-0.557,0.674-0.835,1.526-0.835,2.558c0,1,0.255,1.844,0.764,2.534s1.235,1.035,2.181,1.035
			c0.697,0,1.292-0.206,1.785-0.618c0.492-0.411,0.825-1.047,0.997-1.906l-1.33-0.136c-0.222,0.873-0.672,1.31-1.35,1.31
			c-0.443,0-0.788-0.188-1.035-0.563c-0.246-0.375-0.37-0.909-0.37-1.601c0-0.651,0.119-1.207,0.356-1.666
			S174.251,40.533,174.775,40.533z"/>
		<path d="M182.357,39.264c-0.968,0-1.747,0.337-2.337,1.011c-0.591,0.674-0.886,1.518-0.886,2.531c0,0.94,0.267,1.775,0.801,2.503
			c0.533,0.728,1.307,1.092,2.32,1.092c0.94,0,1.718-0.329,2.33-0.987c0.613-0.658,0.92-1.527,0.92-2.608
			c0-1.049-0.295-1.902-0.886-2.558C184.03,39.592,183.275,39.264,182.357,39.264z M182.311,45.126c-0.476,0-0.85-0.197-1.123-0.59
			s-0.411-0.963-0.411-1.71c0-0.692,0.129-1.247,0.387-1.666s0.654-0.627,1.188-0.627c0.516,0,0.898,0.202,1.146,0.607
			c0.249,0.405,0.373,0.958,0.373,1.659C183.87,44.35,183.351,45.126,182.311,45.126z"/>
		<polygon points="190.163,44.054 188.563,39.406 186.947,39.406 189.329,46.259 190.611,46.259 192.938,39.406 191.724,39.406 		
			"/>
		<path d="M197.671,39.264c-1,0-1.791,0.339-2.375,1.018c-0.583,0.678-0.875,1.536-0.875,2.571c0,1.09,0.29,1.954,0.868,2.592
			c0.579,0.638,1.344,0.957,2.294,0.957c0.791,0,1.449-0.201,1.974-0.604c0.525-0.402,0.878-0.914,1.059-1.533l-1.397-0.19
			c-0.267,0.742-0.782,1.113-1.547,1.113c-0.394,0-0.722-0.104-0.983-0.313c-0.263-0.208-0.438-0.452-0.526-0.732
			c-0.088-0.28-0.132-0.654-0.132-1.12h4.701l0.007-0.176c0-1.049-0.267-1.909-0.801-2.578
			C199.403,39.599,198.647,39.264,197.671,39.264z M196.029,42.025c0.05-0.534,0.217-0.947,0.502-1.238
			c0.285-0.292,0.64-0.438,1.065-0.438c0.43,0,0.79,0.156,1.082,0.468c0.291,0.313,0.439,0.715,0.444,1.208H196.029z"/>
		<path d="M205.396,39.644c-0.349,0.294-0.622,0.76-0.821,1.397v-1.635h-1.397v6.853h1.547v-3.175c0-0.47,0.128-0.957,0.383-1.458
			c0.256-0.502,0.777-0.753,1.564-0.753v-1.663c-0.086-0.004-0.154-0.007-0.204-0.007C206.101,39.203,205.743,39.35,205.396,39.644z
			"/>
	</g>
	<circle display="inline" fill="none" stroke="#000000" stroke-width="2" cx="61.384" cy="32.133" r="14.357"/>
	<path display="inline" d="M67.964,29.602c0,0.426-0.346,0.772-0.772,0.772H55.575c-0.426,0-0.772-0.346-0.772-0.772v-6.986
		c0-0.426,0.346-0.772,0.772-0.772h11.618c0.426,0,0.772,0.346,0.772,0.772V29.602z"/>
	<rect x="59.666" y="31.361" display="inline" width="3.435" height="2.679"/>
	<rect x="59.666" y="35.783" display="inline" width="3.435" height="2.04"/>
	<rect x="59.666" y="39.444" display="inline" width="3.435" height="1.621"/>
	<rect x="59.666" y="42.879" display="inline" width="3.435" height="1.158"/>
</g>
</svg>
