<?xml version="1.0" encoding="utf-8"?>
<!-- Generator: Adobe Illustrator 15.0.0, SVG Export Plug-In . SVG Version: 6.00 Build 0)  -->
<!DOCTYPE svg PUBLIC "-//W3C//DTD SVG 1.1//EN" "http://www.w3.org/Graphics/SVG/1.1/DTD/svg11.dtd">
<svg version="1.1" xmlns="http://www.w3.org/2000/svg" xmlns:xlink="http://www.w3.org/1999/xlink" x="0px" y="0px" width="191.5px"
	 height="32.75px" viewBox="0 0 191.5 32.75" enable-background="new 0 0 191.5 32.75" xml:space="preserve">
<g id="Layer_1" display="none">
	<rect x="37.902" y="1.651" display="inline" fill="none" width="162.098" height="22.462"/>
	
		<text transform="matrix(1 0 0 1 37.9023 17.0977)" display="inline" fill="#FFFFFF" font-family="'FranklinGothic-Heavy'" font-size="23.158">Hammerstone</text>
	
		<text transform="matrix(1 0 0 1 38.5195 30.1338)" display="inline" fill="#FFFFFF" font-family="'FranklinGothic-Medium'" font-size="13.8948" letter-spacing="1">insurance &amp; cover</text>
	<circle display="inline" fill="none" stroke="#FFFFFF" stroke-width="2" cx="16.134" cy="16.008" r="14.357"/>
	<path display="inline" fill="#FFFFFF" d="M22.714,13.477c0,0.426-0.346,0.772-0.772,0.772H10.325c-0.426,0-0.772-0.346-0.772-0.772
		V6.491c0-0.426,0.346-0.772,0.772-0.772h11.618c0.426,0,0.772,0.346,0.772,0.772V13.477z"/>
	<rect x="14.416" y="15.236" display="inline" fill="#FFFFFF" width="3.435" height="2.679"/>
	<rect x="14.416" y="19.658" display="inline" fill="#FFFFFF" width="3.435" height="2.04"/>
	<rect x="14.416" y="23.319" display="inline" fill="#FFFFFF" width="3.435" height="1.621"/>
	<rect x="14.416" y="26.754" display="inline" fill="#FFFFFF" width="3.435" height="1.158"/>
</g>
<g id="Layer_1_copy">
	<g>
		<polygon points="43.986,11.093 47.604,11.093 47.604,17.098 52.342,17.098 52.342,1.663 47.604,1.663 47.604,7.339 43.986,7.339 
			43.986,1.663 39.248,1.663 39.248,17.098 43.986,17.098 		"/>
		<path d="M66.104,10.268c0-1.244-0.078-2.084-0.232-2.522c-0.155-0.437-0.458-0.852-0.91-1.244
			c-0.453-0.392-1.067-0.68-1.843-0.865C62.342,5.453,61.49,5.36,60.563,5.36c-3.415,0-5.416,1.203-6.004,3.607l4.116,0.385
			c0.121-0.837,0.701-1.255,1.741-1.255c0.445,0,0.782,0.083,1.012,0.249c0.23,0.166,0.345,0.501,0.345,1.006v0.26
			c-2.812,0.151-4.77,0.602-5.874,1.352c-1.104,0.75-1.657,1.732-1.657,2.945c0,0.897,0.337,1.693,1.012,2.386
			c0.674,0.693,1.69,1.04,3.047,1.04c1.651,0,2.883-0.614,3.697-1.843c0,0.581,0.053,1.116,0.158,1.605h4.297
			c-0.234-0.618-0.351-1.364-0.351-2.239V10.268z M61.772,12.27c0,0.98-0.169,1.613-0.509,1.899c-0.339,0.287-0.75,0.43-1.232,0.43
			c-0.762,0-1.142-0.347-1.142-1.04c0-1.025,0.961-1.64,2.883-1.843V12.27z"/>
		<path d="M85.869,17.098V9.273c0-1.018-0.126-1.77-0.379-2.256c-0.252-0.486-0.66-0.884-1.221-1.193
			c-0.562-0.309-1.212-0.463-1.951-0.463c-1.545,0-2.691,0.596-3.438,1.787C78.21,5.956,77.132,5.36,75.647,5.36
			c-1.379,0-2.431,0.596-3.155,1.787V5.598h-4.048v11.5h4.342V9.906c0-0.92,0.366-1.38,1.097-1.38c0.708,0,1.063,0.46,1.063,1.38
			v7.191h4.331v-6.649c0-1.229,0.422-1.843,1.267-1.843c0.354,0,0.601,0.096,0.74,0.289c0.14,0.192,0.209,0.53,0.209,1.012v7.191
			H85.869z"/>
		<path d="M104.08,5.824c-0.562-0.309-1.212-0.463-1.95-0.463c-1.546,0-2.691,0.596-3.438,1.787
			c-0.671-1.191-1.749-1.787-3.234-1.787c-1.379,0-2.431,0.596-3.155,1.787V5.598h-4.048v11.5h4.342V9.906
			c0-0.92,0.366-1.38,1.097-1.38c0.708,0,1.063,0.46,1.063,1.38v7.191h4.331v-6.649c0-1.229,0.422-1.843,1.267-1.843
			c0.354,0,0.601,0.096,0.74,0.289c0.14,0.192,0.21,0.53,0.21,1.012v7.191h4.376V9.273c0-1.018-0.127-1.77-0.379-2.256
			C105.049,6.531,104.642,6.133,104.08,5.824z"/>
		<path d="M117.966,16.142c1.021-0.795,1.657-1.758,1.905-2.889l-4.206-0.283c-0.174,0.942-0.75,1.414-1.73,1.414
			c-0.678,0-1.138-0.175-1.379-0.526s-0.37-0.888-0.385-1.611h7.7c0.008-0.279,0.012-0.498,0.012-0.656
			c0-1.922-0.567-3.441-1.702-4.557c-1.135-1.115-2.621-1.673-4.461-1.673c-1.899,0-3.419,0.592-4.557,1.775
			c-1.139,1.184-1.707,2.635-1.707,4.354c0,1.658,0.576,3.047,1.729,4.167c1.153,1.12,2.699,1.679,4.637,1.679
			C115.563,17.335,116.944,16.938,117.966,16.142z M113.76,8.018c0.45,0,0.828,0.134,1.132,0.401c0.305,0.268,0.46,0.79,0.468,1.566
			h-3.2C112.159,8.673,112.692,8.018,113.76,8.018z"/>
		<path d="M128.205,9.329c0.248,0,0.531,0.038,0.848,0.113V5.428c-0.279-0.03-0.497-0.045-0.656-0.045
			c-1.567,0-2.566,0.863-2.996,2.589V5.598h-3.754v11.5h4.319v-5.27C125.966,10.163,126.712,9.329,128.205,9.329z"/>
		<path d="M138.823,9.923c-0.671-0.219-1.949-0.432-3.834-0.641c-0.724-0.082-1.085-0.312-1.085-0.688
			c0-0.128,0.118-0.258,0.355-0.39c0.237-0.132,0.598-0.198,1.08-0.198c1.018,0,1.685,0.339,2.002,1.018l3.414-0.645
			c-0.769-2.013-2.548-3.019-5.337-3.019c-1.591,0-2.876,0.364-3.855,1.091c-0.98,0.727-1.471,1.679-1.471,2.855
			c0,0.844,0.291,1.611,0.871,2.301c0.58,0.69,2.039,1.197,4.376,1.521c0.845,0.113,1.38,0.225,1.605,0.334
			c0.227,0.109,0.34,0.262,0.34,0.458c0,0.452-0.585,0.678-1.753,0.678c-1.41,0-2.217-0.415-2.42-1.244l-3.562,0.486
			c0.738,2.33,2.664,3.494,5.778,3.494c1.847,0,3.296-0.37,4.348-1.109s1.577-1.739,1.577-2.999c0-0.822-0.237-1.523-0.712-2.104
			C140.066,10.542,139.494,10.142,138.823,9.923z"/>
		<path d="M143.401,12.156l-0.012,1.346c0,1.304,0.326,2.254,0.979,2.85c0.652,0.595,1.672,0.893,3.059,0.893
			c0.859,0,1.733-0.087,2.623-0.26v-3.211c-0.497,0.128-0.927,0.192-1.289,0.192c-0.233,0-0.46-0.055-0.678-0.164
			c-0.219-0.109-0.328-0.454-0.328-1.035v-4.24h2.295V5.598h-2.295V1.787l-4.286,0.068l-0.067,3.743h-1.719v2.929h1.719V12.156z"/>
		<path d="M157.276,5.36c-1.877,0-3.402,0.573-4.574,1.719s-1.758,2.578-1.758,4.297c0,1.598,0.561,2.991,1.685,4.178
			c1.123,1.188,2.639,1.781,4.546,1.781c1.93,0,3.477-0.575,4.642-1.724c1.164-1.149,1.747-2.584,1.747-4.303
			c0-1.704-0.575-3.121-1.725-4.251C160.689,5.926,159.168,5.36,157.276,5.36z M158.525,13.507
			c-0.154,0.728-0.582,1.091-1.283,1.091c-0.497,0-0.871-0.213-1.119-0.639c-0.249-0.426-0.373-1.299-0.373-2.618
			c0-1.124,0.12-1.93,0.361-2.42s0.622-0.735,1.143-0.735c0.565,0,0.957,0.238,1.176,0.712c0.219,0.475,0.328,1.251,0.328,2.33
			C158.758,12.021,158.68,12.78,158.525,13.507z"/>
		<path d="M174.934,5.841c-0.577-0.32-1.283-0.48-2.12-0.48c-1.591,0-2.695,0.622-3.313,1.866V5.598h-4.184v11.5h4.512v-6.909
			c0-1.146,0.41-1.719,1.232-1.719c0.278,0,0.511,0.083,0.695,0.249c0.185,0.166,0.277,0.546,0.277,1.142v7.237h4.512V9.736
			c0-1.259-0.125-2.143-0.373-2.651C175.923,6.576,175.51,6.162,174.934,5.841z"/>
		<path d="M190.736,11.591c0-1.922-0.567-3.441-1.702-4.557c-1.135-1.115-2.621-1.673-4.461-1.673c-1.899,0-3.419,0.592-4.557,1.775
			c-1.139,1.184-1.707,2.635-1.707,4.354c0,1.658,0.576,3.047,1.729,4.167c1.153,1.12,2.699,1.679,4.637,1.679
			c1.741,0,3.122-0.397,4.144-1.193s1.657-1.758,1.905-2.889l-4.206-0.283c-0.174,0.942-0.75,1.414-1.73,1.414
			c-0.678,0-1.138-0.175-1.379-0.526s-0.37-0.888-0.385-1.611h7.7C190.732,11.968,190.736,11.749,190.736,11.591z M183.013,9.985
			c0-1.312,0.533-1.968,1.601-1.968c0.45,0,0.828,0.134,1.132,0.401c0.305,0.268,0.46,0.79,0.468,1.566H183.013z"/>
		<rect x="39.442" y="23.281" width="1.547" height="6.853"/>
		<rect x="39.442" y="20.873" width="1.547" height="1.608"/>
		<path d="M47.364,23.139c-0.891,0-1.583,0.577-2.076,1.73v-1.588h-1.411v6.853h1.547v-3.521c0-0.71,0.151-1.242,0.455-1.595
			c0.303-0.353,0.656-0.529,1.058-0.529c0.294,0,0.545,0.114,0.753,0.342c0.208,0.229,0.313,0.569,0.313,1.021v4.281h1.547V25.71
			c0-0.955-0.214-1.622-0.641-2.001C48.479,23.329,47.965,23.139,47.364,23.139z"/>
		<path d="M55.767,26.056l-1.472-0.305c-0.665-0.136-0.998-0.382-0.998-0.74c0-0.516,0.412-0.773,1.235-0.773
			c0.678,0,1.09,0.258,1.235,0.773l1.377-0.278c-0.321-1.063-1.205-1.595-2.652-1.595c-0.869,0-1.522,0.212-1.961,0.635
			c-0.439,0.423-0.658,0.937-0.658,1.543c0,1.085,0.692,1.762,2.076,2.028l1.249,0.238c0.204,0.041,0.38,0.12,0.529,0.237
			c0.149,0.118,0.224,0.267,0.224,0.448c0,0.565-0.479,0.848-1.438,0.848c-0.755,0-1.244-0.278-1.465-0.834l-1.452,0.278
			c0.163,0.579,0.513,1.01,1.051,1.292c0.538,0.283,1.158,0.424,1.859,0.424c0.81,0,1.509-0.187,2.097-0.56
			c0.588-0.373,0.882-0.937,0.882-1.692C57.483,26.947,56.911,26.292,55.767,26.056z"/>
		<path d="M63.857,26.572c0,0.981-0.174,1.623-0.522,1.923c-0.348,0.301-0.689,0.451-1.024,0.451c-0.208,0-0.42-0.077-0.638-0.23
			s-0.326-0.477-0.326-0.97v-4.464h-1.581v4.797c0,0.692,0.183,1.231,0.549,1.618s0.862,0.58,1.486,0.58
			c1.054,0,1.775-0.541,2.164-1.622v1.479h1.438v-6.853h-1.547V26.572z"/>
		<path d="M70.51,23.519c-0.348,0.294-0.622,0.76-0.821,1.397v-1.635h-1.397v6.853h1.547v-3.175c0-0.47,0.127-0.957,0.383-1.458
			c0.255-0.502,0.777-0.753,1.563-0.753v-1.663c-0.086-0.004-0.154-0.007-0.203-0.007C71.216,23.078,70.858,23.225,70.51,23.519z"/>
		<path d="M79.585,25.656c0-0.588-0.044-1.005-0.132-1.251s-0.248-0.475-0.479-0.686c-0.23-0.21-0.513-0.359-0.848-0.448
			c-0.334-0.088-0.767-0.132-1.295-0.132c-0.977,0-1.724,0.185-2.239,0.553s-0.81,0.838-0.882,1.408l1.316,0.197
			c0.126-0.71,0.66-1.065,1.601-1.065c0.968,0,1.452,0.355,1.452,1.065v0.516c-0.186-0.004-0.333-0.007-0.441-0.007
			c-2.764,0-4.146,0.787-4.146,2.361c0,0.606,0.207,1.109,0.621,1.509c0.414,0.4,0.962,0.601,1.645,0.601
			c1.135,0,1.909-0.509,2.32-1.527c0.027,0.507,0.106,0.968,0.238,1.384h1.472c-0.136-0.475-0.204-0.936-0.204-1.384V25.656z
			 M78.079,27.277c0,0.475-0.15,0.899-0.451,1.272c-0.301,0.373-0.745,0.56-1.333,0.56c-0.407,0-0.711-0.101-0.913-0.302
			c-0.201-0.202-0.302-0.445-0.302-0.729c0-0.955,1-1.432,2.999-1.432V27.277z"/>
		<path d="M85.953,23.139c-0.891,0-1.583,0.577-2.076,1.73v-1.588h-1.411v6.853h1.547v-3.521c0-0.71,0.151-1.242,0.455-1.595
			c0.303-0.353,0.656-0.529,1.058-0.529c0.294,0,0.545,0.114,0.753,0.342c0.208,0.229,0.313,0.569,0.313,1.021v4.281h1.547V25.71
			c0-0.955-0.214-1.622-0.641-2.001C87.068,23.329,86.554,23.139,85.953,23.139z"/>
		<path d="M93.718,24.408c0.719,0,1.137,0.425,1.255,1.275l1.33-0.183c-0.285-1.574-1.174-2.361-2.667-2.361
			c-0.927,0-1.669,0.337-2.226,1.011c-0.556,0.674-0.834,1.526-0.834,2.558c0,1,0.254,1.844,0.764,2.534
			c0.509,0.69,1.236,1.035,2.181,1.035c0.696,0,1.291-0.206,1.784-0.618c0.493-0.411,0.825-1.047,0.998-1.906l-1.33-0.136
			c-0.222,0.873-0.671,1.31-1.35,1.31c-0.443,0-0.788-0.188-1.035-0.563c-0.247-0.375-0.37-0.909-0.37-1.601
			c0-0.651,0.119-1.207,0.356-1.666C92.812,24.637,93.193,24.408,93.718,24.408z"/>
		<path d="M101.327,23.139c-1,0-1.791,0.339-2.375,1.018c-0.583,0.678-0.875,1.536-0.875,2.571c0,1.09,0.29,1.954,0.869,2.592
			s1.343,0.957,2.293,0.957c0.791,0,1.449-0.201,1.974-0.604c0.525-0.402,0.878-0.914,1.059-1.533l-1.397-0.19
			c-0.267,0.742-0.782,1.113-1.547,1.113c-0.394,0-0.722-0.104-0.984-0.313c-0.262-0.208-0.438-0.452-0.526-0.732
			c-0.088-0.28-0.132-0.654-0.132-1.12h4.702l0.007-0.176c0-1.049-0.267-1.909-0.801-2.578
			C103.06,23.474,102.305,23.139,101.327,23.139z M99.685,25.9c0.05-0.534,0.217-0.947,0.502-1.238
			c0.285-0.292,0.64-0.438,1.065-0.438c0.43,0,0.79,0.156,1.082,0.468c0.292,0.313,0.439,0.715,0.444,1.208H99.685z"/>
		<path d="M118.703,24.516c-0.146,1.027-0.534,1.947-1.167,2.761l-2.009-2.293c0.579-0.235,1.024-0.557,1.337-0.963
			c0.313-0.407,0.468-0.83,0.468-1.269c0-0.624-0.23-1.117-0.691-1.479c-0.462-0.362-1.055-0.542-1.778-0.542
			c-0.705,0-1.284,0.188-1.736,0.563s-0.679,0.864-0.679,1.465c0,0.539,0.27,1.124,0.808,1.757c-1,0.443-1.651,0.9-1.954,1.371
			s-0.454,0.966-0.454,1.486c0,0.819,0.324,1.507,0.974,2.066c0.648,0.559,1.491,0.838,2.526,0.838c1.091,0,2.099-0.33,3.026-0.991
			c0.425,0.417,0.772,0.686,1.041,0.808c0.27,0.122,0.614,0.183,1.035,0.183l0.645-0.014v-1.296
			c-0.177,0.023-0.313,0.034-0.407,0.034c-0.208,0-0.388-0.038-0.539-0.112c-0.152-0.075-0.386-0.284-0.702-0.627
			c0.899-1.013,1.449-2.18,1.648-3.501L118.703,24.516z M114.303,22.138c0.197-0.151,0.427-0.227,0.688-0.227
			c0.258,0,0.482,0.074,0.672,0.224c0.19,0.149,0.285,0.355,0.285,0.617c0,0.484-0.394,0.891-1.181,1.222
			c-0.507-0.43-0.76-0.844-0.76-1.242C114.008,22.488,114.106,22.29,114.303,22.138z M114.578,28.919
			c-0.548,0-1.001-0.15-1.36-0.451c-0.36-0.301-0.54-0.7-0.54-1.198c0-0.742,0.462-1.32,1.385-1.737l2.422,2.728
			C115.887,28.7,115.252,28.919,114.578,28.919z"/>
		<path d="M129.525,24.408c0.719,0,1.138,0.425,1.255,1.275l1.33-0.183c-0.285-1.574-1.174-2.361-2.667-2.361
			c-0.927,0-1.669,0.337-2.225,1.011c-0.557,0.674-0.835,1.526-0.835,2.558c0,1,0.255,1.844,0.764,2.534s1.235,1.035,2.181,1.035
			c0.697,0,1.292-0.206,1.785-0.618c0.492-0.411,0.825-1.047,0.997-1.906l-1.33-0.136c-0.222,0.873-0.672,1.31-1.35,1.31
			c-0.443,0-0.788-0.188-1.035-0.563c-0.246-0.375-0.37-0.909-0.37-1.601c0-0.651,0.119-1.207,0.356-1.666
			S129.001,24.408,129.525,24.408z"/>
		<path d="M137.107,23.139c-0.968,0-1.747,0.337-2.337,1.011c-0.591,0.674-0.886,1.518-0.886,2.531c0,0.94,0.267,1.775,0.801,2.503
			c0.533,0.728,1.307,1.092,2.32,1.092c0.94,0,1.718-0.329,2.33-0.987c0.613-0.658,0.92-1.527,0.92-2.608
			c0-1.049-0.295-1.902-0.886-2.558C138.78,23.467,138.025,23.139,137.107,23.139z M137.061,29.001c-0.476,0-0.85-0.197-1.123-0.59
			s-0.411-0.963-0.411-1.71c0-0.692,0.129-1.247,0.387-1.666s0.654-0.627,1.188-0.627c0.516,0,0.898,0.202,1.146,0.607
			c0.249,0.405,0.373,0.958,0.373,1.659C138.62,28.225,138.101,29.001,137.061,29.001z"/>
		<polygon points="144.913,27.929 143.313,23.281 141.697,23.281 144.079,30.134 145.361,30.134 147.688,23.281 146.474,23.281 		
			"/>
		<path d="M152.421,23.139c-1,0-1.791,0.339-2.375,1.018c-0.583,0.678-0.875,1.536-0.875,2.571c0,1.09,0.29,1.954,0.868,2.592
			c0.579,0.638,1.344,0.957,2.294,0.957c0.791,0,1.449-0.201,1.974-0.604c0.525-0.402,0.878-0.914,1.059-1.533l-1.397-0.19
			c-0.267,0.742-0.782,1.113-1.547,1.113c-0.394,0-0.722-0.104-0.983-0.313c-0.263-0.208-0.438-0.452-0.526-0.732
			c-0.088-0.28-0.132-0.654-0.132-1.12h4.701l0.007-0.176c0-1.049-0.267-1.909-0.801-2.578
			C154.153,23.474,153.397,23.139,152.421,23.139z M150.779,25.9c0.05-0.534,0.217-0.947,0.502-1.238
			c0.285-0.292,0.64-0.438,1.065-0.438c0.43,0,0.79,0.156,1.082,0.468c0.291,0.313,0.439,0.715,0.444,1.208H150.779z"/>
		<path d="M160.146,23.519c-0.349,0.294-0.622,0.76-0.821,1.397v-1.635h-1.397v6.853h1.547v-3.175c0-0.47,0.128-0.957,0.383-1.458
			c0.256-0.502,0.777-0.753,1.564-0.753v-1.663c-0.086-0.004-0.154-0.007-0.204-0.007C160.851,23.078,160.493,23.225,160.146,23.519
			z"/>
	</g>
	<circle fill="none" stroke="#000000" stroke-width="2" cx="16.134" cy="16.008" r="14.357"/>
	<path d="M22.714,13.477c0,0.426-0.346,0.772-0.772,0.772H10.325c-0.426,0-0.772-0.346-0.772-0.772V6.491
		c0-0.426,0.346-0.772,0.772-0.772h11.618c0.426,0,0.772,0.346,0.772,0.772V13.477z"/>
	<rect x="14.416" y="15.236" width="3.435" height="2.679"/>
	<rect x="14.416" y="19.658" width="3.435" height="2.04"/>
	<rect x="14.416" y="23.319" width="3.435" height="1.621"/>
	<rect x="14.416" y="26.754" width="3.435" height="1.158"/>
</g>
</svg>
