<?xml version="1.0" encoding="utf-8"?>
<!-- Generator: Adobe Illustrator 15.0.0, SVG Export Plug-In . SVG Version: 6.00 Build 0)  -->
<!DOCTYPE svg PUBLIC "-//W3C//DTD SVG 1.1//EN" "http://www.w3.org/Graphics/SVG/1.1/DTD/svg11.dtd">
<svg version="1.1" xmlns="http://www.w3.org/2000/svg" xmlns:xlink="http://www.w3.org/1999/xlink" x="0px" y="0px"
	 width="685.466px" height="715.464px" viewBox="0 0 685.466 715.464" enable-background="new 0 0 685.466 715.464"
	 xml:space="preserve">
<g id="Layer_1">
	<circle fill="none" stroke="#EC5F62" stroke-width="40" stroke-miterlimit="10" cx="339.732" cy="242.53" r="211.998"/>
	<g>
		<path fill="#EC5F62" d="M344.068,196.711l-4.761,21.973h-22.583l-6.714,30.273h25.269l-5.493,21.973h-24.292l-9.521,42.236
			h-24.414l8.911-42.236h-27.954l-9.033,42.236h-24.414l8.667-42.236H205.03l4.517-21.973h22.949l6.47-30.273h-24.658l4.15-21.973
			h25.024l9.033-43.457h25.024l-9.033,43.457h27.954l9.277-43.457h24.78l-9.033,43.457H344.068z M292.066,218.684h-28.32
			l-6.714,30.273h28.198L292.066,218.684z"/>
		<path fill="#EC5F62" d="M480.054,327.205H369.336v-30.518h36.255V187.678l-37.231,8.057v-31.25l75.684-15.259v147.461h36.011
			V327.205z"/>
	</g>
	<path fill="#EC5F62" d="M496.103,404.183l-9.523-32.284L462.779,395.7c-32.424,32.422-98.111,39.724-120.687,39.801
		c-22.575-0.077-88.264-7.379-120.687-39.801l-23.801-23.802l-9.523,32.284c-1.556,5.275-37.681,129.477-38.546,280.01
		c2.225,12.1,12.819,21.271,25.563,21.271c3.43,0,6.702-0.668,9.699-1.877L341.394,601.53h1.533l156.461,102.057
		c2.996,1.209,6.268,1.877,9.697,1.877c12.744,0,23.34-9.172,25.564-21.271C533.785,533.659,497.66,409.458,496.103,404.183z"/>
</g>
<g id="Layer_2" display="none">
	<path display="inline" fill="#EC609A" d="M208.011,485.59V312.45c0-19.821,16.068-35.89,35.89-35.89h191.085
		c19.821,0,35.89,16.069,35.89,35.89v173.14"/>
	
		<text transform="matrix(1 0 0 1 64.437 702.7236)" display="inline" fill="#EC609A" font-family="'MyanmarText-Bold'" font-size="250">10M</text>
	<circle display="inline" fill="#EC609A" cx="341.088" cy="131.346" r="102.286"/>
	<path display="inline" fill="#EC609A" d="M37.665,84.438C27.598,67.363,33.28,45.36,50.355,35.293l29.371-17.315
		c17.075-10.066,39.078-4.384,49.144,12.691l100.247,170.044c10.066,17.075,4.385,39.078-12.69,49.144l-29.372,17.316
		c-17.075,10.066-39.078,4.384-49.144-12.691L37.665,84.438z"/>
	<path display="inline" fill="#EC609A" d="M646.52,84.438c10.066-17.075,4.385-39.078-12.69-49.144l-29.371-17.315
		c-17.075-10.066-39.078-4.384-49.144,12.691L455.068,200.713c-10.066,17.075-4.385,39.078,12.69,49.144l29.371,17.316
		c17.075,10.066,39.078,4.384,49.145-12.691L646.52,84.438z"/>
</g>
<g id="Layer_3" display="none">
	<g display="inline">
		<text transform="matrix(1 0 0 1 121.3491 439.6934)"><tspan x="0" y="0" fill="#F07F19" font-family="'MyanmarText-Bold'" font-size="250">92</tspan><tspan x="287.598" y="0" fill="#F07F19" font-family="'MyanmarText-Bold'" font-size="180">%</tspan></text>
		<circle fill="none" stroke="#CDCCCC" stroke-width="40" stroke-miterlimit="10" cx="339.444" cy="357.731" r="292"/>
		<path fill="#F07F19" d="M560.061,137.115c-58.93-58.929-137.279-91.383-220.617-91.383v40c149.98,0,272,122.019,272,272
			c0,149.982-122.02,272-272,272c-149.982,0-272-122.018-272-272c0-96.381,50.395-181.208,126.213-229.534l-22.539-33.27
			c-18.678,12.016-36.212,26.108-52.292,42.187c-58.929,58.929-91.383,137.279-91.383,220.617s32.454,161.689,91.383,220.617
			c58.929,58.93,137.279,91.383,220.618,91.383c83.338,0,161.688-32.453,220.617-91.383c58.93-58.928,91.383-137.279,91.383-220.617
			S618.991,196.043,560.061,137.115z"/>
	</g>
</g>
</svg>
