<?xml version="1.0" encoding="utf-8"?>
<!-- Generator: Adobe Illustrator 15.0.0, SVG Export Plug-In . SVG Version: 6.00 Build 0)  -->
<!DOCTYPE svg PUBLIC "-//W3C//DTD SVG 1.1//EN" "http://www.w3.org/Graphics/SVG/1.1/DTD/svg11.dtd">
<svg version="1.1" id="Layer_1" xmlns="http://www.w3.org/2000/svg" xmlns:xlink="http://www.w3.org/1999/xlink" x="0px" y="0px"
	 width="775px" height="715.464px" viewBox="-40.767 0 775 715.464" enable-background="new -40.767 0 775 715.464"
	 xml:space="preserve">
<g id="Layer_1_1_" display="none">
	
		<circle display="inline" fill="none" stroke="#EC5F62" stroke-width="40" stroke-miterlimit="10" cx="339.732" cy="242.531" r="211.998"/>
	<g display="inline">
		<path fill="#EC5F62" d="M344.069,196.711l-4.762,21.973h-22.583l-6.714,30.273h25.27l-5.493,21.973h-24.292l-9.521,42.236h-24.414
			l8.911-42.236h-27.954l-9.033,42.236h-24.414l8.667-42.236H205.03l4.517-21.973h22.949l6.47-30.273h-24.658l4.15-21.973h25.024
			l9.033-43.457h25.024l-9.033,43.457h27.954l9.277-43.457h24.779l-9.032,43.457H344.069z M292.066,218.684h-28.32l-6.714,30.273
			h28.198L292.066,218.684z"/>
		<path fill="#EC5F62" d="M480.053,327.205H369.336v-30.518h36.254V187.678l-37.23,8.057v-31.25l75.684-15.259v147.461h36.012
			v30.518H480.053z"/>
	</g>
	<path display="inline" fill="#EC5F62" d="M496.102,404.183l-9.521-32.284l-23.801,23.802
		c-32.424,32.422-98.111,39.723-120.688,39.801c-22.575-0.078-88.264-7.379-120.687-39.801l-23.801-23.803l-9.523,32.284
		c-1.556,5.274-37.681,129.478-38.546,280.011c2.225,12.1,12.819,21.27,25.563,21.27c3.43,0,6.702-0.668,9.699-1.877
		l156.597-102.055h1.533l156.46,102.057c2.996,1.209,6.27,1.877,9.697,1.877c12.744,0,23.34-9.172,25.564-21.271
		C533.786,533.66,497.661,409.458,496.102,404.183z"/>
</g>
<g id="Layer_2" display="none">
	<path display="inline" fill="#EC609A" d="M208.011,485.589V312.45c0-19.821,16.068-35.89,35.89-35.89h191.086
		c19.82,0,35.889,16.069,35.889,35.89v173.139"/>
	<g display="inline">
		<path fill="#EC609A" d="M195.907,702.724H85.189v-30.518h36.255v-109.01l-37.231,8.057v-31.25l75.684-15.258v147.461h36.011
			L195.907,702.724L195.907,702.724z"/>
		<path fill="#EC609A" d="M279.281,705.775c-41.668,0-62.5-29.254-62.5-87.77c0-30.354,5.634-53.484,16.907-69.395
			c11.271-15.91,27.607-23.865,49.011-23.865c40.688,0,61.036,29.744,61.036,89.232c0,29.623-5.556,52.328-16.663,68.115
			C315.962,697.882,300.033,705.775,279.281,705.775z M280.99,554.164c-16.684,0-25.024,20.957-25.024,62.867
			c0,39.471,8.179,59.203,24.536,59.203c15.949,0,23.926-20.344,23.926-61.035C304.427,574.509,296.615,554.164,280.99,554.164z"/>
		<path fill="#EC609A" d="M571.516,702.724h-38.939V597.988c0-11.313,0.488-23.805,1.465-37.477h-0.977
			c-2.035,10.742-3.865,18.475-5.492,23.193l-41.018,119.018h-32.225l-41.748-117.797c-1.141-3.174-2.973-11.311-5.494-24.414
			h-1.098c1.057,17.254,1.586,32.391,1.586,45.41v96.801h-35.521V527.675h57.738l35.768,103.76
			c2.848,8.301,4.924,16.645,6.227,25.023h0.73c2.197-9.684,4.518-18.105,6.959-25.268l35.768-103.518h56.273v175.051H571.516z"/>
	</g>
	<circle display="inline" fill="#EC609A" cx="341.088" cy="131.346" r="102.286"/>
	<path display="inline" fill="#EC609A" d="M37.665,84.438C27.598,67.363,33.28,45.36,50.355,35.293l29.371-17.315
		c17.075-10.066,39.078-4.384,49.144,12.691l100.247,170.044c10.066,17.075,4.385,39.078-12.69,49.144l-29.372,17.316
		c-17.075,10.066-39.078,4.384-49.144-12.691L37.665,84.438z"/>
	<path display="inline" fill="#EC609A" d="M646.52,84.438c10.066-17.075,4.385-39.078-12.689-49.144l-29.371-17.315
		c-17.076-10.066-39.078-4.384-49.145,12.691L455.069,200.713c-10.066,17.075-4.387,39.078,12.689,49.144l29.371,17.316
		c17.074,10.066,39.078,4.384,49.145-12.691L646.52,84.438z"/>
</g>
<g>
	<path fill="#CCCBCB" d="M704.841,252.868c0-115.889-93.945-209.834-209.834-209.834c-59.833,0-113.815,25.044-152.04,65.22
		l-0.001-0.001l-0.001,0.001c-38.226-40.176-92.208-65.22-152.041-65.22c-115.888,0-209.834,93.945-209.834,209.834
		c0,56.655,22.462,108.056,58.956,145.811l-0.006,0.006l0.516,0.515c1.328,1.365,2.673,2.71,4.037,4.038l252.211,252.214
		c12.492,10.472,28.585,16.783,46.161,16.783c17.577,0,33.669-6.313,46.162-16.787l252.218-252.216
		c1.358-1.324,2.701-2.665,4.024-4.024l0.521-0.522l-0.006-0.006C682.379,360.923,704.841,309.522,704.841,252.868z"/>
	<path fill="#3A90CE" d="M573.58,58.255l-0.787,1.576c0,0-35.28,25.537-38.976,62.161c-3.697,36.624-30.913,58.464-30.913,58.464
		s-5.377,5.711-6.721,12.432s-4.703,12.769-18.815,12.096c-14.111-0.672-12.179-33.614-12.179-33.614s-5.947-70.312-25.613-90.757
		c0,0-7.286-8.866-18.802-0.252c0,0-22.746,23.463-50.781,29.859c0,0-17.919,0.986-20.795-8.228c-2.117,2.047-4.2,4.128-6.23,6.261
		l-0.001-0.001l-0.001,0.001c-38.226-40.177-92.208-65.221-152.041-65.221c-115.888,0-209.834,93.945-209.834,209.834
		c0,56.655,22.462,108.056,58.956,145.811l-0.006,0.006l0.516,0.515c1.328,1.365,2.673,2.71,4.037,4.038L158.788,517.43
		c0.068,0.056,35.002,28.337,55.484,5.629c0,0,48.211-40.01,0-80.47c0,0-84.849-51.639,4.452-58.438c0,0,20.419-0.812,15.714-11.829
		c-4.704-11.019,0.819-14.791,8.474-14.456c0,0,83.927,1.682,79.56-59.808c0,0,0.979-21.892,22.904-30.913
		c21.924-9.021,45.129-14.157,42.169-47.121c-2.961-32.964-0.107-51.99,15.594-74.597c0,0,11.34-14.241,21.952-2.542
		c0,0,8.702,19.126-2.774,44.645c0,0-9.375,60.449,28.047,42.48c37.421-17.969,42.606,9.951,104.021-9.386
		c61.417-19.336,59.401-58.312,59.401-58.312s6.048-37.296,25.2-30.24c0,0,7.885,5.421,44.432,54.455c0,0,6.552,9.454,12.973,7.244
		C678.304,132.04,632.612,82.112,573.58,58.255z"/>
	<path fill="#3A90CE" d="M528.853,515.723c-36.21-118.338-69.629-105.777-69.629-105.777c-14.449,3.36-7.057,20.496-7.057,20.496
		c14.112,18.816,12.431,44.048,12.431,44.048c-0.671,38.334,41.417,64.071,41.417,64.071"/>
	<path fill="#3A90CE" d="M342.966,672.431c17.064,0,32.731-5.951,45.061-15.882l78.118-78.119
		c-45.66-82.509-72.274-55.371-72.274-55.371c-22.554,19.062-28.729,3.312-28.729,3.312c-17.64-45.36-40.824-19.846-40.824-19.846
		c-15.499,15.688-17.22,40.425-17.22,40.425c0,15.038-15.876,15.876-15.876,15.876c-34.272,8.735-48.559,38.479-48.559,38.479
		l55.243,55.244C310.236,666.478,325.902,672.431,342.966,672.431z"/>
	<path fill="#CCCBCB" d="M188.885,308.201c0,0-32.911-5.155-17.108-48.961c0,0,6.385-10.08,11.76-18.145
		c5.376-8.064,5.655-32.465,5.348-35.721s-0.98-7.288-8.036-4.264c-7.056,3.024-28.172,8.875-35.254-48.147
		c0,0-8.01-43.919,21.686-63.91c0,0,72.364-38.89,33.054,20.791c0,0-6.046,2.898,8.066,6.593
		c14.112,3.695,21.585,15.515-3.488,47.91c0,0-10.672,0.354,34.4,48.233s56.302,61.95,31.343,82.36c0,0-5.316,3.897,2.495,8.11
		c0,0,20.726,11.163-30.581,18.284c0,0-46.938,9.473-62.731,23.92c0,0-19.824,7.729-9.408-10.08c0,0,9.072-11.087,19.824-20.16
		C190.257,315.017,195.485,310.458,188.885,308.201z"/>
	<path fill="#CCCBCB" d="M82.075,265.836c0,0-17.146,14.908-6.394,25.661c0,0,3.839,9.733,29.806,2.343
		c25.967-7.39,42.27-10.771,44.369-34.949c0,0,2.198-14.771-5.244-20.146c0,0-4.231-2.541,4.171-9.168
		c0,0,17.917-13.026,7.016-20.913c0,0-16.029-16.044-29.929-9.95c0,0-20.829,0.548-19.045,17.602c0,0,0.968,7.595-10.869,8.964
		c0,0-19.893,0.59-9.331,17.444C86.623,242.723,95.189,254.624,82.075,265.836z"/>
</g>
</svg>
