<?xml version="1.0" encoding="utf-8"?>
<!-- Generator: Adobe Illustrator 15.0.0, SVG Export Plug-In . SVG Version: 6.00 Build 0)  -->
<!DOCTYPE svg PUBLIC "-//W3C//DTD SVG 1.1//EN" "http://www.w3.org/Graphics/SVG/1.1/DTD/svg11.dtd">
<svg version="1.1" id="Layer_1" xmlns="http://www.w3.org/2000/svg" xmlns:xlink="http://www.w3.org/1999/xlink" x="0px" y="0px"
	 width="1080px" height="1920px" viewBox="0 0 1080 1920" enable-background="new 0 0 1080 1920" xml:space="preserve">
<g id="Layer_1_1_" display="none">
	<rect display="inline" fill="#00FF00" width="1080" height="1920"/>
</g>
<g id="Layer_2" opacity="0.5">
	<circle opacity="0.3" fill="#FFFFFF" enable-background="new    " cx="62" cy="1866" r="32"/>
	<circle opacity="0.37" fill="#FFFFFF" enable-background="new    " cx="173" cy="1769" r="13.095"/>
	<circle opacity="0.37" fill="#FFFFFF" enable-background="new    " cx="411" cy="1175" r="13.095"/>
	<circle opacity="0.3" fill="#FFFFFF" enable-background="new    " cx="749" cy="1398" r="32"/>
	<circle opacity="0.3" fill="#FFFFFF" enable-background="new    " cx="424" cy="830" r="32"/>
	<circle opacity="0.3" fill="#FFFFFF" enable-background="new    " cx="761" cy="499" r="32"/>
	<circle opacity="0.3" fill="#FFFFFF" enable-background="new    " cx="683" cy="347" r="32"/>
	<circle opacity="0.3" fill="#FFFFFF" enable-background="new    " cx="194" cy="94" r="45.5"/>
	<circle opacity="0.3" fill="#FFFFFF" enable-background="new    " cx="715" cy="870" r="45.5"/>
	<circle opacity="0.3" fill="#FFFFFF" enable-background="new    " cx="942" cy="1769" r="45.5"/>
	<circle opacity="0.3" fill="#FFFFFF" enable-background="new    " cx="494" cy="1334" r="45.5"/>
	<circle opacity="0.3" fill="#FFFFFF" enable-background="new    " cx="339" cy="1240" r="29.931"/>
	<circle opacity="0.3" fill="#FFFFFF" enable-background="new    " cx="876" cy="1853" r="29.931"/>
	<circle opacity="0.3" fill="#FFFFFF" enable-background="new    " cx="318" cy="1506" r="29.931"/>
	<circle opacity="0.3" fill="#FFFFFF" enable-background="new    " cx="811" cy="1108" r="29.931"/>
	<circle opacity="0.3" fill="#FFFFFF" enable-background="new    " cx="86" cy="635" r="29.931"/>
	<circle opacity="0.3" fill="#FFFFFF" enable-background="new    " cx="476" cy="110" r="18.395"/>
	<circle opacity="0.3" fill="#FFFFFF" enable-background="new    " cx="919" cy="271" r="18.395"/>
	<circle opacity="0.3" fill="#FFFFFF" enable-background="new    " cx="811" cy="347" r="18.395"/>
	<circle opacity="0.3" fill="#FFFFFF" enable-background="new    " cx="494" cy="738" r="18.395"/>
	<circle opacity="0.3" fill="#FFFFFF" enable-background="new    " cx="641" cy="764" r="18.395"/>
	<circle opacity="0.3" fill="#FFFFFF" enable-background="new    " cx="143" cy="542" r="18.395"/>
	<circle opacity="0.3" fill="#FFFFFF" enable-background="new    " cx="246" cy="214" r="18.395"/>
	<circle opacity="0.3" fill="#FFFFFF" enable-background="new    " cx="540" cy="1252" r="18.395"/>
	<circle opacity="0.3" fill="#FFFFFF" enable-background="new    " cx="309" cy="998" r="18.395"/>
	<circle opacity="0.3" fill="#FFFFFF" enable-background="new    " cx="859" cy="1651" r="18.395"/>
	<circle opacity="0.3" fill="#FFFFFF" enable-background="new    " cx="456" cy="1662" r="18.395"/>
	<circle opacity="0.3" fill="#FFFFFF" enable-background="new    " cx="553" cy="1724" r="31.895"/>
	<circle opacity="0.3" fill="#FFFFFF" enable-background="new    " cx="993" cy="1334" r="18.395"/>
	<circle opacity="0.3" fill="#FFFFFF" enable-background="new    " cx="942" cy="1453" r="31.895"/>
	<circle opacity="0.3" fill="#FFFFFF" enable-background="new    " cx="924" cy="915" r="31.894"/>
	<circle opacity="0.3" fill="#FFFFFF" enable-background="new    " cx="600" cy="1061" r="31.895"/>
	<circle opacity="0.3" fill="#FFFFFF" enable-background="new    " cx="193" cy="808" r="31.894"/>
	<circle opacity="0.3" fill="#FFFFFF" enable-background="new    " cx="116" cy="1125" r="31.895"/>
	<circle opacity="0.3" fill="#FFFFFF" enable-background="new    " cx="180" cy="1517" r="31.895"/>
	<circle opacity="0.3" fill="#FFFFFF" enable-background="new    " cx="892" cy="637" r="31.894"/>
	<circle opacity="0.3" fill="#FFFFFF" enable-background="new    " cx="424" cy="479" r="31.894"/>
	<circle opacity="0.3" fill="#FFFFFF" enable-background="new    " cx="829" cy="62" r="31.894"/>
	<circle opacity="0.3" fill="#FFFFFF" enable-background="new    " cx="614" cy="567" r="55.864"/>
	<circle opacity="0.3" fill="#FFFFFF" enable-background="new    " cx="111" cy="321" r="31.894"/>
</g>
</svg>
