<?xml version="1.0" encoding="utf-8"?>
<!-- Generator: Adobe Illustrator 15.0.0, SVG Export Plug-In . SVG Version: 6.00 Build 0)  -->
<!DOCTYPE svg PUBLIC "-//W3C//DTD SVG 1.1//EN" "http://www.w3.org/Graphics/SVG/1.1/DTD/svg11.dtd">
<svg version="1.1" xmlns="http://www.w3.org/2000/svg" xmlns:xlink="http://www.w3.org/1999/xlink" x="0px" y="0px" width="1080px"
	 height="1920px" viewBox="0 0 1080 1920" enable-background="new 0 0 1080 1920" xml:space="preserve">
<g id="Layer_1" display="none">
	<rect display="inline" fill="#00FF00" width="1080" height="1920"/>
</g>
<g id="Layer_2">
	<circle opacity="0.3" fill="#FFFFFF" cx="51.07" cy="1238.946" r="21.07"/>
	<circle opacity="0.37" fill="#FFFFFF" cx="124.158" cy="1175.077" r="8.623"/>
	<circle opacity="0.37" fill="#FFFFFF" cx="280.868" cy="783.959" r="8.623"/>
	<circle opacity="0.3" fill="#FFFFFF" cx="503.424" cy="930.793" r="21.07"/>
	<circle opacity="0.3" fill="#FFFFFF" cx="289.428" cy="556.794" r="21.07"/>
	<circle opacity="0.3" fill="#FFFFFF" cx="511.325" cy="338.848" r="21.07"/>
	<circle opacity="0.3" fill="#FFFFFF" cx="459.966" cy="238.764" r="21.07"/>
	<circle opacity="0.3" fill="#FFFFFF" cx="137.985" cy="72.177" r="29.959"/>
	<circle opacity="0.3" fill="#FFFFFF" cx="481.037" cy="583.132" r="29.959"/>
	<circle opacity="0.3" fill="#FFFFFF" cx="630.504" cy="1175.077" r="29.959"/>
	<circle opacity="0.3" fill="#FFFFFF" cx="335.52" cy="888.652" r="29.959"/>
	<circle opacity="0.3" fill="#FFFFFF" cx="233.46" cy="826.758" r="19.708"/>
	<circle opacity="0.3" fill="#FFFFFF" cx="587.047" cy="1230.387" r="19.708"/>
	<circle opacity="0.3" fill="#FFFFFF" cx="219.633" cy="1001.905" r="19.708"/>
	<circle opacity="0.3" fill="#FFFFFF" cx="544.248" cy="739.843" r="19.708"/>
	<circle opacity="0.3" fill="#FFFFFF" cx="66.873" cy="428.397" r="19.708"/>
	<circle opacity="0.3" fill="#FFFFFF" cx="323.667" cy="82.712" r="12.112"/>
	<circle opacity="0.3" fill="#FFFFFF" cx="615.36" cy="188.722" r="12.112"/>
	<circle opacity="0.3" fill="#FFFFFF" cx="544.248" cy="238.764" r="12.112"/>
	<circle opacity="0.3" fill="#FFFFFF" cx="335.52" cy="496.217" r="12.112"/>
	<circle opacity="0.3" fill="#FFFFFF" cx="432.312" cy="513.337" r="12.112"/>
	<circle opacity="0.3" fill="#FFFFFF" cx="104.405" cy="367.162" r="12.112"/>
	<circle opacity="0.3" fill="#FFFFFF" cx="172.225" cy="151.191" r="12.112"/>
	<circle opacity="0.3" fill="#FFFFFF" cx="365.808" cy="834.659" r="12.112"/>
	<circle opacity="0.3" fill="#FFFFFF" cx="213.707" cy="667.414" r="12.112"/>
	<circle opacity="0.3" fill="#FFFFFF" cx="575.853" cy="1097.38" r="12.112"/>
	<circle opacity="0.3" fill="#FFFFFF" cx="310.499" cy="1104.623" r="12.112"/>
	<circle opacity="0.3" fill="#FFFFFF" cx="374.368" cy="1145.446" r="21"/>
	<circle opacity="0.3" fill="#FFFFFF" cx="664.085" cy="888.652" r="12.112"/>
	<circle opacity="0.3" fill="#FFFFFF" cx="630.504" cy="967.008" r="21"/>
	<circle opacity="0.3" fill="#FFFFFF" cx="618.652" cy="612.763" r="21"/>
	<circle opacity="0.3" fill="#FFFFFF" cx="405.315" cy="708.896" r="21"/>
	<circle opacity="0.3" fill="#FFFFFF" cx="137.327" cy="542.309" r="21"/>
	<circle opacity="0.3" fill="#FFFFFF" cx="86.627" cy="751.037" r="21"/>
	<circle opacity="0.3" fill="#FFFFFF" cx="128.767" cy="1009.148" r="21"/>
	<circle opacity="0.3" fill="#FFFFFF" cx="597.582" cy="429.714" r="21"/>
	<circle opacity="0.3" fill="#FFFFFF" cx="289.428" cy="325.679" r="21"/>
	<circle opacity="0.3" fill="#FFFFFF" cx="556.1" cy="51.106" r="21"/>
	<circle opacity="0.3" fill="#FFFFFF" cx="414.534" cy="383.623" r="36.784"/>
	<circle opacity="0.3" fill="#FFFFFF" cx="83.334" cy="221.645" r="21"/>
	<circle opacity="0.3" fill="#FFFFFF" cx="762.127" cy="1226.177" r="21.07"/>
	<circle opacity="0.37" fill="#FFFFFF" cx="689.04" cy="1290.046" r="8.623"/>
	<circle opacity="0.37" fill="#FFFFFF" cx="532.329" cy="1681.164" r="8.622"/>
	<circle opacity="0.3" fill="#FFFFFF" cx="309.773" cy="1534.33" r="21.07"/>
	<circle opacity="0.3" fill="#FFFFFF" cx="490.77" cy="1852.328" r="21.07"/>
	<circle opacity="0.3" fill="#FFFFFF" cx="72.212" cy="1739.945" r="29.959"/>
	<circle opacity="0.3" fill="#FFFFFF" cx="332.161" cy="1881.99" r="29.959"/>
	<circle opacity="0.3" fill="#FFFFFF" cx="182.693" cy="1290.046" r="29.959"/>
	<circle opacity="0.3" fill="#FFFFFF" cx="477.678" cy="1576.471" r="29.959"/>
	<circle opacity="0.3" fill="#FFFFFF" cx="579.737" cy="1638.365" r="19.708"/>
	<circle opacity="0.3" fill="#FFFFFF" cx="226.15" cy="1234.736" r="19.708"/>
	<circle opacity="0.3" fill="#FFFFFF" cx="593.564" cy="1463.218" r="19.708"/>
	<circle opacity="0.3" fill="#FFFFFF" cx="268.95" cy="1725.28" r="19.708"/>
	<circle opacity="0.3" fill="#FFFFFF" cx="84.324" cy="1383.727" r="19.708"/>
	<circle opacity="0.3" fill="#FFFFFF" cx="46.792" cy="1444.961" r="12.112"/>
	<circle opacity="0.3" fill="#FFFFFF" cx="447.389" cy="1630.464" r="12.112"/>
	<circle opacity="0.3" fill="#FFFFFF" cx="599.49" cy="1797.709" r="12.111"/>
	<circle opacity="0.3" fill="#FFFFFF" cx="237.344" cy="1367.743" r="12.112"/>
	<circle opacity="0.3" fill="#FFFFFF" cx="502.699" cy="1360.5" r="12.112"/>
	<circle opacity="0.3" fill="#FFFFFF" cx="438.829" cy="1319.677" r="21"/>
	<circle opacity="0.3" fill="#FFFFFF" cx="149.112" cy="1576.471" r="12.112"/>
	<circle opacity="0.3" fill="#FFFFFF" cx="182.693" cy="1498.115" r="21"/>
	<circle opacity="0.3" fill="#FFFFFF" cx="194.545" cy="1852.36" r="21"/>
	<circle opacity="0.3" fill="#FFFFFF" cx="407.882" cy="1756.227" r="21"/>
	<circle opacity="0.3" fill="#FFFFFF" cx="65.871" cy="1873.814" r="21"/>
	<circle opacity="0.3" fill="#FFFFFF" cx="726.57" cy="1714.086" r="21"/>
	<circle opacity="0.3" fill="#FFFFFF" cx="684.43" cy="1455.975" r="21"/>
	<circle opacity="0.3" fill="#FFFFFF" cx="67.863" cy="1590.479" r="21"/>
	<circle opacity="0.3" fill="#FFFFFF" cx="837.424" cy="245.32" r="21.07"/>
	<circle opacity="0.3" fill="#FFFFFF" cx="845.325" cy="837.266" r="21.07"/>
	<circle opacity="0.3" fill="#FFFFFF" cx="793.967" cy="937.35" r="21.07"/>
	<circle opacity="0.3" fill="#FFFFFF" cx="815.037" cy="592.98" r="29.959"/>
	<circle opacity="0.3" fill="#FFFFFF" cx="669.52" cy="287.461" r="29.959"/>
	<circle opacity="0.3" fill="#FFFFFF" cx="878.248" cy="436.271" r="19.708"/>
	<circle opacity="0.3" fill="#FFFFFF" cx="949.36" cy="987.391" r="12.112"/>
	<circle opacity="0.3" fill="#FFFFFF" cx="878.248" cy="937.35" r="12.112"/>
	<circle opacity="0.3" fill="#FFFFFF" cx="669.52" cy="679.896" r="12.112"/>
	<circle opacity="0.3" fill="#FFFFFF" cx="766.312" cy="662.776" r="12.112"/>
	<circle opacity="0.3" fill="#FFFFFF" cx="699.808" cy="341.454" r="12.112"/>
	<circle opacity="0.3" fill="#FFFFFF" cx="998.085" cy="287.461" r="12.112"/>
	<circle opacity="0.3" fill="#FFFFFF" cx="964.504" cy="209.105" r="21"/>
	<circle opacity="0.3" fill="#FFFFFF" cx="952.652" cy="563.351" r="21"/>
	<circle opacity="0.3" fill="#FFFFFF" cx="739.315" cy="467.217" r="21"/>
	<circle opacity="0.3" fill="#FFFFFF" cx="931.582" cy="746.399" r="21"/>
	<circle opacity="0.3" fill="#FFFFFF" cx="890.1" cy="1125.007" r="21"/>
	<circle opacity="0.3" fill="#FFFFFF" cx="748.534" cy="792.49" r="36.784"/>
	<circle opacity="0.3" fill="#FFFFFF" cx="910.504" cy="1429.077" r="29.959"/>
	<circle opacity="0.3" fill="#FFFFFF" cx="867.047" cy="1484.387" r="19.708"/>
	<circle opacity="0.3" fill="#FFFFFF" cx="855.853" cy="1351.38" r="12.112"/>
	<circle opacity="0.37" fill="#FFFFFF" cx="969.04" cy="1544.046" r="8.623"/>
	<circle opacity="0.3" fill="#FFFFFF" cx="782.699" cy="1614.5" r="12.112"/>
	<circle opacity="0.3" fill="#FFFFFF" cx="718.829" cy="1573.677" r="21"/>
	<circle opacity="0.37" fill="#FFFFFF" cx="964.329" cy="1677.164" r="8.622"/>
	<circle opacity="0.3" fill="#FFFFFF" cx="922.77" cy="1848.328" r="21.07"/>
	<circle opacity="0.3" fill="#FFFFFF" cx="909.678" cy="1572.471" r="29.959"/>
	<circle opacity="0.3" fill="#FFFFFF" cx="1011.737" cy="1634.365" r="19.708"/>
	<circle opacity="0.3" fill="#FFFFFF" cx="879.389" cy="1626.464" r="12.112"/>
	<circle opacity="0.3" fill="#FFFFFF" cx="1031.49" cy="1793.709" r="12.111"/>
	<circle opacity="0.3" fill="#FFFFFF" cx="839.882" cy="1752.227" r="21"/>
	<circle opacity="0.3" fill="#FFFFFF" cx="739.504" cy="1852.077" r="29.959"/>
	<circle opacity="0.3" fill="#FFFFFF" cx="630.534" cy="1869.49" r="36.784"/>
	<circle opacity="0.3" fill="#FFFFFF" cx="1037.504" cy="1117.077" r="29.959"/>
	<circle opacity="0.3" fill="#FFFFFF" cx="994.047" cy="1172.387" r="19.708"/>
	<circle opacity="0.3" fill="#FFFFFF" cx="982.853" cy="1039.38" r="12.112"/>
	<circle opacity="0.3" fill="#FFFFFF" cx="754.127" cy="1072.177" r="21.07"/>
	<circle opacity="0.37" fill="#FFFFFF" cx="1096.04" cy="1232.046" r="8.623"/>
	<circle opacity="0.3" fill="#FFFFFF" cx="1000.564" cy="1405.218" r="19.708"/>
	<circle opacity="0.3" fill="#FFFFFF" cx="937.43" cy="1280.975" r="21"/>
	<circle opacity="0.3" fill="#FFFFFF" cx="477.534" cy="1051.49" r="36.784"/>
	<circle opacity="0.3" fill="#FFFFFF" cx="419.773" cy="1456.33" r="21.07"/>
	<circle opacity="0.3" fill="#FFFFFF" cx="335.49" cy="1289.709" r="12.111"/>
	<circle opacity="0.3" fill="#FFFFFF" cx="823.985" cy="70.178" r="29.959"/>
	<circle opacity="0.3" fill="#FFFFFF" cx="689.225" cy="83.191" r="12.111"/>
	<circle opacity="0.3" fill="#FFFFFF" cx="726.334" cy="176.645" r="21"/>
	<circle opacity="0.3" fill="#FFFFFF" cx="432.534" cy="102.623" r="36.784"/>
	<circle opacity="0.3" fill="#FFFFFF" cx="268.52" cy="197.461" r="29.959"/>
	<circle opacity="0.3" fill="#FFFFFF" cx="955.334" cy="94.645" r="21"/>
	<circle opacity="0.3" fill="#FFFFFF" cx="916.808" cy="353.454" r="12.112"/>
	<circle opacity="0.3" fill="#FFFFFF" cx="994.504" cy="876.077" r="29.959"/>
	<circle opacity="0.3" fill="#FFFFFF" cx="1013.534" cy="633.49" r="36.784"/>
	<circle opacity="0.3" fill="#FFFFFF" cx="1007.52" cy="408.652" r="29.959"/>
	<circle opacity="0.3" fill="#FFFFFF" cx="1024.504" cy="1869.077" r="29.959"/>
</g>
</svg>
