<?xml version="1.0" encoding="utf-8"?>
<!-- Generator: Adobe Illustrator 15.0.0, SVG Export Plug-In . SVG Version: 6.00 Build 0)  -->
<!DOCTYPE svg PUBLIC "-//W3C//DTD SVG 1.1//EN" "http://www.w3.org/Graphics/SVG/1.1/DTD/svg11.dtd">
<svg version="1.1" id="Layer_1" xmlns="http://www.w3.org/2000/svg" xmlns:xlink="http://www.w3.org/1999/xlink" x="0px" y="0px"
	 width="1080px" height="1920px" viewBox="0 0 1080 1920" enable-background="new 0 0 1080 1920" xml:space="preserve">
<g id="Layer_1_1_" display="none">
	<rect display="inline" fill="#00FF00" width="1080" height="1920"/>
</g>
<g id="Layer_2" opacity="0.5">
	<circle opacity="0.3" fill="#FFFFFF" enable-background="new    " cx="26.407" cy="1232.946" r="21.07"/>
	<circle opacity="0.37" fill="#FFFFFF" enable-background="new    " cx="99.495" cy="1169.077" r="8.623"/>
	<circle opacity="0.37" fill="#FFFFFF" enable-background="new    " cx="256.205" cy="777.959" r="8.623"/>
	<circle opacity="0.3" fill="#FFFFFF" enable-background="new    " cx="478.761" cy="924.793" r="21.07"/>
	<circle opacity="0.3" fill="#FFFFFF" enable-background="new    " cx="264.765" cy="550.794" r="21.07"/>
	<circle opacity="0.3" fill="#FFFFFF" enable-background="new    " cx="486.662" cy="332.848" r="21.07"/>
	<circle opacity="0.3" fill="#FFFFFF" enable-background="new    " cx="435.303" cy="232.764" r="21.07"/>
	<circle opacity="0.3" fill="#FFFFFF" enable-background="new    " cx="113.322" cy="66.177" r="29.959"/>
	<circle opacity="0.3" fill="#FFFFFF" enable-background="new    " cx="456.374" cy="577.132" r="29.959"/>
	<circle opacity="0.3" fill="#FFFFFF" enable-background="new    " cx="605.841" cy="1169.077" r="29.959"/>
	<circle opacity="0.3" fill="#FFFFFF" enable-background="new    " cx="310.857" cy="882.652" r="29.959"/>
	<circle opacity="0.3" fill="#FFFFFF" enable-background="new    " cx="208.797" cy="820.758" r="19.708"/>
	<circle opacity="0.3" fill="#FFFFFF" enable-background="new    " cx="562.384" cy="1224.387" r="19.708"/>
	<circle opacity="0.3" fill="#FFFFFF" enable-background="new    " cx="194.97" cy="995.905" r="19.708"/>
	<circle opacity="0.3" fill="#FFFFFF" enable-background="new    " cx="519.585" cy="733.843" r="19.708"/>
	<circle opacity="0.3" fill="#FFFFFF" enable-background="new    " cx="42.21" cy="422.397" r="19.708"/>
	<circle opacity="0.3" fill="#FFFFFF" enable-background="new    " cx="299.004" cy="76.712" r="12.112"/>
	<circle opacity="0.3" fill="#FFFFFF" enable-background="new    " cx="590.697" cy="182.722" r="12.112"/>
	<circle opacity="0.3" fill="#FFFFFF" enable-background="new    " cx="519.585" cy="232.764" r="12.112"/>
	<circle opacity="0.3" fill="#FFFFFF" enable-background="new    " cx="310.857" cy="490.217" r="12.112"/>
	<circle opacity="0.3" fill="#FFFFFF" enable-background="new    " cx="407.648" cy="507.337" r="12.112"/>
	<circle opacity="0.3" fill="#FFFFFF" enable-background="new    " cx="79.742" cy="361.162" r="12.112"/>
	<circle opacity="0.3" fill="#FFFFFF" enable-background="new    " cx="147.562" cy="145.191" r="12.112"/>
	<circle opacity="0.3" fill="#FFFFFF" enable-background="new    " cx="341.145" cy="828.659" r="12.112"/>
	<circle opacity="0.3" fill="#FFFFFF" enable-background="new    " cx="189.044" cy="661.414" r="12.112"/>
	<circle opacity="0.3" fill="#FFFFFF" enable-background="new    " cx="551.189" cy="1091.38" r="12.112"/>
	<circle opacity="0.3" fill="#FFFFFF" enable-background="new    " cx="285.836" cy="1098.623" r="12.112"/>
	<circle opacity="0.3" fill="#FFFFFF" enable-background="new    " cx="349.705" cy="1139.446" r="21"/>
	<circle opacity="0.3" fill="#FFFFFF" enable-background="new    " cx="639.422" cy="882.652" r="12.112"/>
	<circle opacity="0.3" fill="#FFFFFF" enable-background="new    " cx="605.841" cy="961.008" r="21"/>
	<circle opacity="0.3" fill="#FFFFFF" enable-background="new    " cx="593.989" cy="606.763" r="21"/>
	<circle opacity="0.3" fill="#FFFFFF" enable-background="new    " cx="380.652" cy="702.896" r="21"/>
	<circle opacity="0.3" fill="#FFFFFF" enable-background="new    " cx="112.664" cy="536.309" r="21"/>
	<circle opacity="0.3" fill="#FFFFFF" enable-background="new    " cx="61.964" cy="745.037" r="21"/>
	<circle opacity="0.3" fill="#FFFFFF" enable-background="new    " cx="104.104" cy="1003.148" r="21"/>
	<circle opacity="0.3" fill="#FFFFFF" enable-background="new    " cx="572.919" cy="423.714" r="21"/>
	<circle opacity="0.3" fill="#FFFFFF" enable-background="new    " cx="264.765" cy="319.679" r="21"/>
	<circle opacity="0.3" fill="#FFFFFF" enable-background="new    " cx="531.437" cy="45.106" r="21"/>
	<circle opacity="0.3" fill="#FFFFFF" enable-background="new    " cx="389.871" cy="377.623" r="36.784"/>
	<circle opacity="0.3" fill="#FFFFFF" enable-background="new    " cx="58.671" cy="215.645" r="21"/>
	<circle opacity="0.3" fill="#FFFFFF" enable-background="new    " cx="737.464" cy="1220.177" r="21.07"/>
	<circle opacity="0.37" fill="#FFFFFF" enable-background="new    " cx="664.377" cy="1284.046" r="8.623"/>
	<circle opacity="0.37" fill="#FFFFFF" enable-background="new    " cx="507.666" cy="1675.164" r="8.622"/>
	<circle opacity="0.3" fill="#FFFFFF" enable-background="new    " cx="285.11" cy="1528.33" r="21.07"/>
	<circle opacity="0.3" fill="#FFFFFF" enable-background="new    " cx="466.107" cy="1846.328" r="21.07"/>
	<circle opacity="0.3" fill="#FFFFFF" enable-background="new    " cx="47.549" cy="1733.945" r="29.959"/>
	<circle opacity="0.3" fill="#FFFFFF" enable-background="new    " cx="307.498" cy="1875.99" r="29.959"/>
	<circle opacity="0.3" fill="#FFFFFF" enable-background="new    " cx="158.03" cy="1284.046" r="29.959"/>
	<circle opacity="0.3" fill="#FFFFFF" enable-background="new    " cx="453.015" cy="1570.471" r="29.959"/>
	<circle opacity="0.3" fill="#FFFFFF" enable-background="new    " cx="555.074" cy="1632.365" r="19.708"/>
	<circle opacity="0.3" fill="#FFFFFF" enable-background="new    " cx="201.487" cy="1228.736" r="19.708"/>
	<circle opacity="0.3" fill="#FFFFFF" enable-background="new    " cx="568.9" cy="1457.218" r="19.708"/>
	<circle opacity="0.3" fill="#FFFFFF" enable-background="new    " cx="244.287" cy="1719.28" r="19.708"/>
	<circle opacity="0.3" fill="#FFFFFF" enable-background="new    " cx="59.661" cy="1377.728" r="19.708"/>
	<circle opacity="0.3" fill="#FFFFFF" enable-background="new    " cx="22.129" cy="1438.961" r="12.112"/>
	<circle opacity="0.3" fill="#FFFFFF" enable-background="new    " cx="422.726" cy="1624.464" r="12.112"/>
	<circle opacity="0.3" fill="#FFFFFF" enable-background="new    " cx="574.827" cy="1791.709" r="12.111"/>
	<circle opacity="0.3" fill="#FFFFFF" enable-background="new    " cx="212.681" cy="1361.743" r="12.112"/>
	<circle opacity="0.3" fill="#FFFFFF" enable-background="new    " cx="478.036" cy="1354.5" r="12.112"/>
	<circle opacity="0.3" fill="#FFFFFF" enable-background="new    " cx="414.166" cy="1313.677" r="21"/>
	<circle opacity="0.3" fill="#FFFFFF" enable-background="new    " cx="124.449" cy="1570.471" r="12.112"/>
	<circle opacity="0.3" fill="#FFFFFF" enable-background="new    " cx="158.03" cy="1492.115" r="21"/>
	<circle opacity="0.3" fill="#FFFFFF" enable-background="new    " cx="169.882" cy="1846.36" r="21"/>
	<circle opacity="0.3" fill="#FFFFFF" enable-background="new    " cx="383.219" cy="1750.227" r="21"/>
	<circle opacity="0.3" fill="#FFFFFF" enable-background="new    " cx="41.208" cy="1867.814" r="21"/>
	<circle opacity="0.3" fill="#FFFFFF" enable-background="new    " cx="701.907" cy="1708.086" r="21"/>
	<circle opacity="0.3" fill="#FFFFFF" enable-background="new    " cx="659.767" cy="1449.975" r="21"/>
	<circle opacity="0.3" fill="#FFFFFF" enable-background="new    " cx="43.2" cy="1584.479" r="21"/>
	<circle opacity="0.3" fill="#FFFFFF" enable-background="new    " cx="812.761" cy="239.32" r="21.07"/>
	<circle opacity="0.3" fill="#FFFFFF" enable-background="new    " cx="820.662" cy="831.266" r="21.07"/>
	<circle opacity="0.3" fill="#FFFFFF" enable-background="new    " cx="769.304" cy="931.35" r="21.07"/>
	<circle opacity="0.3" fill="#FFFFFF" enable-background="new    " cx="790.374" cy="586.98" r="29.959"/>
	<circle opacity="0.3" fill="#FFFFFF" enable-background="new    " cx="644.857" cy="281.461" r="29.959"/>
	<circle opacity="0.3" fill="#FFFFFF" enable-background="new    " cx="853.585" cy="430.271" r="19.708"/>
	<circle opacity="0.3" fill="#FFFFFF" enable-background="new    " cx="924.697" cy="981.391" r="12.112"/>
	<circle opacity="0.3" fill="#FFFFFF" enable-background="new    " cx="853.585" cy="931.35" r="12.112"/>
	<circle opacity="0.3" fill="#FFFFFF" enable-background="new    " cx="644.857" cy="673.896" r="12.112"/>
	<circle opacity="0.3" fill="#FFFFFF" enable-background="new    " cx="741.648" cy="656.776" r="12.112"/>
	<circle opacity="0.3" fill="#FFFFFF" enable-background="new    " cx="675.145" cy="335.454" r="12.112"/>
	<circle opacity="0.3" fill="#FFFFFF" enable-background="new    " cx="973.422" cy="281.461" r="12.112"/>
	<circle opacity="0.3" fill="#FFFFFF" enable-background="new    " cx="939.841" cy="203.105" r="21"/>
	<circle opacity="0.3" fill="#FFFFFF" enable-background="new    " cx="927.989" cy="557.351" r="21"/>
	<circle opacity="0.3" fill="#FFFFFF" enable-background="new    " cx="714.652" cy="461.217" r="21"/>
	<circle opacity="0.3" fill="#FFFFFF" enable-background="new    " cx="906.919" cy="740.399" r="21"/>
	<circle opacity="0.3" fill="#FFFFFF" enable-background="new    " cx="865.437" cy="1119.007" r="21"/>
	<circle opacity="0.3" fill="#FFFFFF" enable-background="new    " cx="723.871" cy="786.49" r="36.784"/>
	<circle opacity="0.3" fill="#FFFFFF" enable-background="new    " cx="885.841" cy="1423.077" r="29.959"/>
	<circle opacity="0.3" fill="#FFFFFF" enable-background="new    " cx="842.384" cy="1478.387" r="19.708"/>
	<circle opacity="0.3" fill="#FFFFFF" enable-background="new    " cx="831.189" cy="1345.38" r="12.112"/>
	<circle opacity="0.37" fill="#FFFFFF" enable-background="new    " cx="944.377" cy="1538.046" r="8.623"/>
	<circle opacity="0.3" fill="#FFFFFF" enable-background="new    " cx="758.036" cy="1608.5" r="12.112"/>
	<circle opacity="0.3" fill="#FFFFFF" enable-background="new    " cx="694.166" cy="1567.677" r="21"/>
	<circle opacity="0.37" fill="#FFFFFF" enable-background="new    " cx="939.666" cy="1671.164" r="8.622"/>
	<circle opacity="0.3" fill="#FFFFFF" enable-background="new    " cx="898.107" cy="1842.328" r="21.07"/>
	<circle opacity="0.3" fill="#FFFFFF" enable-background="new    " cx="885.015" cy="1566.471" r="29.959"/>
	<circle opacity="0.3" fill="#FFFFFF" enable-background="new    " cx="987.074" cy="1628.365" r="19.708"/>
	<circle opacity="0.3" fill="#FFFFFF" enable-background="new    " cx="854.726" cy="1620.464" r="12.112"/>
	<circle opacity="0.3" fill="#FFFFFF" enable-background="new    " cx="1006.827" cy="1787.709" r="12.111"/>
	<circle opacity="0.3" fill="#FFFFFF" enable-background="new    " cx="815.219" cy="1746.227" r="21"/>
	<circle opacity="0.3" fill="#FFFFFF" enable-background="new    " cx="714.841" cy="1846.077" r="29.959"/>
	<circle opacity="0.3" fill="#FFFFFF" enable-background="new    " cx="605.871" cy="1863.49" r="36.784"/>
	<circle opacity="0.3" fill="#FFFFFF" enable-background="new    " cx="1012.841" cy="1111.077" r="29.959"/>
	<circle opacity="0.3" fill="#FFFFFF" enable-background="new    " cx="969.384" cy="1166.387" r="19.708"/>
	<circle opacity="0.3" fill="#FFFFFF" enable-background="new    " cx="958.189" cy="1033.38" r="12.112"/>
	<circle opacity="0.3" fill="#FFFFFF" enable-background="new    " cx="729.464" cy="1066.177" r="21.07"/>
	<circle opacity="0.37" fill="#FFFFFF" enable-background="new    " cx="1071.377" cy="1226.046" r="8.623"/>
	<circle opacity="0.3" fill="#FFFFFF" enable-background="new    " cx="975.9" cy="1399.218" r="19.708"/>
	<circle opacity="0.3" fill="#FFFFFF" enable-background="new    " cx="912.767" cy="1274.975" r="21"/>
	<circle opacity="0.3" fill="#FFFFFF" enable-background="new    " cx="452.871" cy="1045.49" r="36.784"/>
	<circle opacity="0.3" fill="#FFFFFF" enable-background="new    " cx="395.11" cy="1450.33" r="21.07"/>
	<circle opacity="0.3" fill="#FFFFFF" enable-background="new    " cx="310.827" cy="1283.709" r="12.111"/>
	<circle opacity="0.3" fill="#FFFFFF" enable-background="new    " cx="799.322" cy="64.178" r="29.959"/>
	<circle opacity="0.3" fill="#FFFFFF" enable-background="new    " cx="664.562" cy="77.191" r="12.111"/>
	<circle opacity="0.3" fill="#FFFFFF" enable-background="new    " cx="701.671" cy="170.645" r="21"/>
	<circle opacity="0.3" fill="#FFFFFF" enable-background="new    " cx="407.871" cy="96.623" r="36.784"/>
	<circle opacity="0.3" fill="#FFFFFF" enable-background="new    " cx="243.857" cy="191.461" r="29.959"/>
	<circle opacity="0.3" fill="#FFFFFF" enable-background="new    " cx="930.671" cy="88.645" r="21"/>
	<circle opacity="0.3" fill="#FFFFFF" enable-background="new    " cx="892.145" cy="347.454" r="12.112"/>
	<circle opacity="0.3" fill="#FFFFFF" enable-background="new    " cx="969.841" cy="870.077" r="29.959"/>
	<circle opacity="0.3" fill="#FFFFFF" enable-background="new    " cx="988.871" cy="627.49" r="36.784"/>
	<circle opacity="0.3" fill="#FFFFFF" enable-background="new    " cx="982.857" cy="402.652" r="29.959"/>
	<circle opacity="0.3" fill="#FFFFFF" enable-background="new    " cx="999.841" cy="1863.077" r="29.959"/>
</g>
</svg>
