<?xml version="1.0" encoding="utf-8"?>
<!-- Generator: Adobe Illustrator 15.0.0, SVG Export Plug-In . SVG Version: 6.00 Build 0)  -->
<!DOCTYPE svg PUBLIC "-//W3C//DTD SVG 1.1//EN" "http://www.w3.org/Graphics/SVG/1.1/DTD/svg11.dtd">
<svg version="1.1" id="Layer_1" xmlns="http://www.w3.org/2000/svg" xmlns:xlink="http://www.w3.org/1999/xlink" x="0px" y="0px"
	 width="480.612px" height="600px" viewBox="0 0 480.612 600" enable-background="new 0 0 480.612 600" xml:space="preserve">
<g>
	<path fill="#FFFFFF" d="M152.125,502.643c-1.534,18.914-7.749,33.841-13.906,33.354c-6.148-0.496-9.892-16.228-8.367-35.15
		c1.517-18.924,7.73-33.841,13.889-33.354C149.898,467.979,153.642,483.72,152.125,502.643z"/>
	<g>
		<path fill="#FFFFFF" d="M325.11,93.42c0,0-102.664,29.719-53.56,125.442c0,0,32.203-14.057,34.964-66.539
			C309.247,99.831,325.11,93.42,325.11,93.42z"/>
		<path fill="#FFFFFF" d="M332.961,586.898c0,0,8.573-3.041,13.495-5.4c11.633-5.56,32.868-16.994,64.574-20.092
			c47.13-4.596,69.581-37.978,69.581-37.978s0.141,65.352-54.364,76.778C426.248,600.207,387.578,606.037,332.961,586.898z"/>
		<path fill="#FFFFFF" d="M56.472,406.97c0,0-2.433-56.057,56.91-81.409c59.342-25.33,53.372-37.304,53.372-37.304
			s25.895,56.554-29.854,82.224c0,0-11.014,5.813-39.353,14.263C70.144,392.933,56.472,406.97,56.472,406.97z"/>
		<path fill="#FFFFFF" d="M363.835,315.467c-126.79-70.11-117.759-139.284-117.759-139.284
			c-18.661,54.201,37.509,110.703,37.247,111.62c-0.243,0.917,38.295,42.193,11.464,81.088
			c-26.821,38.885-64.331,34.383-82.215,30.378c-17.894-4.006-73.858-22.555-132.312,8.647
			C21.798,439.117,3.156,519.675,3.156,519.675s-9.827,29.013,5.199,48.797c15.025,19.775,41.313,22.197,41.313,22.197
			c54.018,10.819,158.02,5.701,158.02,5.701c183.297-7.787,219.609-106.427,219.609-106.427S490.606,385.586,363.835,315.467z
			 M165.059,500.285c-2.602,32.259-17.126,57.405-32.464,56.179c-15.339-1.235-25.662-28.384-23.069-60.644
			c2.592-32.259,17.125-57.415,32.464-56.179C157.329,440.877,167.661,468.035,165.059,500.285z"/>
		<path fill="#FFFFFF" d="M244.935,162.95c0,0-40.298-39.04-14.609-98.242c25.689-59.188,13.13-63.788,13.13-63.788
			s57.676,23.293,34.813,80.245c0,0-4.006,11.801-18.765,37.406C245.215,143.357,244.935,162.95,244.935,162.95z"/>
	</g>
</g>
</svg>
