<?xml version="1.0" encoding="utf-8"?>
<!-- Generator: Adobe Illustrator 15.0.0, SVG Export Plug-In . SVG Version: 6.00 Build 0)  -->
<!DOCTYPE svg PUBLIC "-//W3C//DTD SVG 1.1//EN" "http://www.w3.org/Graphics/SVG/1.1/DTD/svg11.dtd">
<svg version="1.1" id="Layer_1" xmlns="http://www.w3.org/2000/svg" xmlns:xlink="http://www.w3.org/1999/xlink" x="0px" y="0px"
	 width="544.79px" height="41.99px" viewBox="0 0 544.79 41.99" enable-background="new 0 0 544.79 41.99" xml:space="preserve">
<polygon points="8.884,34.432 42.225,19.771 64.768,29.289 80.123,19.497 94.438,15.366 105.681,24.873 115.902,16 139.695,16 
	158.791,28.476 205.765,25 224.86,25 266.013,27.997 280.82,16 293.482,16 303.796,10.401 314.008,12.861 322.177,25.068 
	354.854,18.918 366.598,6.652 373.746,0.009 391.616,12.771 408.977,22.471 422.762,17.058 430.931,10.726 440.121,6.13 
	449.823,11.236 454.418,11.746 467.692,11.236 476.883,10.725 490.158,20.937 510.582,22.469 524.878,30.958 544.791,42 0,42 "/>
</svg>
